<svg xmlns="http://www.w3.org/2000/svg" width="556.448" height="439.141" viewBox="0 0 556.448 439.141">
  <g id="Group_100" data-name="Group 100" transform="translate(-2690.5 -1559.201)">
    <path id="Path_134" data-name="Path 134" d="M2154.941,1026.618v81.67h-24.236a38.025,38.025,0,0,0-1.406-5.568,16.112,16.112,0,0,0-17.734-9.75,14.8,14.8,0,0,0-11.587,8.056,15.313,15.313,0,0,0-1.888,6.738,37.447,37.447,0,0,1-4.418.514c-18.06.037-36.12.016-54.18.037-1.541,0-2.991.048-3.8-1.649-.133-.265-.764-.318-1.161-.469l-37.26.019-1.294-7.491h82.443a20.731,20.731,0,0,0,2.121-.215v-5.555h-85.228c-.345-2.408-1.092-4.836-.952-7.215.281-4.723,1.061-9.413,1.615-14.117,2.819.016,5.637.056,8.456.04,2.776-.016,5.568.117,8.355-.1v-2.949h-15.775v-2.121l2.689-.546a5.593,5.593,0,0,0,4.327-4.993c.371-2.843.61-5.7.91-8.551h9.954c1-2.554,1.983-5.054,3.155-8.034.53,2.957.992,5.42,1.45,7.918h10.776l.979.223,9.458-.156,7.382.106,6.82.024,3.031-.2q13.258.021,26.492.026c.146,0,.294-.151.647-.345.647-6.894.554-14,2.164-21.56,4.242,7.128,6.937,14.117,7.706,21.818h19.108c-.631-4.754-1.2-9.281-1.856-13.82-.592-4.1-1.281-8.188-1.928-12.282,3.065.164,6.13.459,9.2.472C2131.294,1026.653,2143.114,1026.618,2154.941,1026.618Zm-50.815,45.032c6.271,0,12.463.082,18.789-.058v-17.829c-2.62-.591-2.848-.456-2.869,1.856-.032,3.532,0,7.066-.021,10.606,0,.75-.143,1.5-.241,2.484h-15.645Zm-38.912-4.065h-14.849c.064.923.114,1.647.167,2.408h14.674Z" transform="translate(1091.999 734.582)" fill="#e8ecfe" opacity="0.8"/>
    <path id="Path_135" data-name="Path 135" d="M2045.432,1328.06c.4.151,1.032.191,1.164.469.8,1.7,2.259,1.652,3.8,1.649,18.06-.021,36.12,0,54.18-.037a36.91,36.91,0,0,0,4.417-.514,36.132,36.132,0,0,0,.231,3.951,16.3,16.3,0,0,0,30.547,4.736,18.824,18.824,0,0,0,1.832-8.156h24.236c0,10.956-.029,21.913.019,32.88.037,7.88-5.616,16.655-15.114,18.071a31.992,31.992,0,0,1-4.7.477q-63.88.04-127.76.024c-1.326,0-2.652.053-3.978.08-.512-3.821-1.015-7.639-1.535-11.458q-1.522-11.195-3.063-22.39l1.448-1.238h61.22c.846,0,1.689-.106,2.53-.162V1341.3h-64.532q-.594-3.885-1.183-7.775c1.061-.053,2.121-.151,3.182-.154q14.979-.016,29.963,0c.944,0,1.888-.08,3.118-.133Z" transform="translate(1081.09 512.705)" fill="#e0e9f7" opacity="0.8"/>
    <path id="Path_136" data-name="Path 136" d="M2349.14,773.628c-11.821,0-23.642.032-35.46-.026-3.065-.013-6.13-.308-9.2-.472a10.448,10.448,0,0,1-.4-1.233,185.3,185.3,0,0,0-8.355-29.229,6.044,6.044,0,0,0-4.1-4.057c-6.645-2.092-13.258-4.312-19.868-6.483l-3.073-1.363-6.512-3.805c-.8-2.681-1.745-5.327-2.386-8.048-.989-4.243-2.084-8.538.132-12.77.75-1.061,1.591-2.084,2.241-3.206a45.447,45.447,0,0,0,6.565-21.067c21.019,0,42.039.061,63.058-.029,7.2-.032,14.8,6.4,16.44,12.7a28.4,28.4,0,0,1,.906,7.281Q2349.14,737.73,2349.14,773.628Zm-32.052-51.539V704.323h-18.72v2.819c5.3.294,10.479-.127,15.764.265.286,5.038-.08,9.856.22,14.69Z" transform="translate(897.8 987.573)" fill="#f2f0ff"/>
    <path id="Path_137" data-name="Path 137" d="M1776.369,1102.1q.589,3.885,1.183,7.775.4,2.652.8,5.287l-1.448,1.238c-.345.064-.692.122-1.037.191a117.772,117.772,0,0,1-21.422,2.85,220.73,220.73,0,0,1-32.93-1.636,6.379,6.379,0,0,1-.477-1.973c.321-3.33.743-6.65,1.143-9.973.623-5.157,1.27-10.312,1.88-15.472.663-5.595,1.2-11.208,1.973-16.79a67.788,67.788,0,0,0-.09-16.681,25.417,25.417,0,0,0-.846,2.723c-1.458,5.282-3.1,10.5-6.276,15.058a28.581,28.581,0,0,1-2.728,3.216,1.574,1.574,0,0,1-2.538,0c-1.4-1.469-2.888-2.866-4.145-4.449-6.544-8.257-11.548-17.5-16.938-26.516-.194-.321-.066-.83-.09-1.252l5.224-2.492c1.4-.369,2.347.4,3.246,1.283q3.094,3.044,6.184,6.1l1.453,1.543q.4.62.8,1.241c-.141,3.818.31,6.043,1.891,8.183.265-2.145.5-3.922.729-5.7q1.082-3.4,2.166-6.809l.573-2.519,2.652-10.341q.97-3.667,1.938-7.334l1.4-7.255,20.433-7.791q8.119-.313,16.238-.634a1.266,1.266,0,0,0,.265-.061c1.108.265,2.227.475,3.323.8,5.3,1.49,10.606,3.026,15.91,4.508,1.485.411,2.522,1.124,2.723,2.766a6.453,6.453,0,0,0,.416,1.244,108.853,108.853,0,0,1,3.086,20.439c-.3,2.853-.53,5.709-.91,8.551a5.576,5.576,0,0,1-4.33,4.993,73.436,73.436,0,0,0-2.036-13.332,32.437,32.437,0,0,0-.395,3.394q-.416,5.223-.833,10.45-.231,2.577-.459,5.157c-.565,4.7-1.326,9.395-1.615,14.117-.141,2.386.607,4.807.952,7.215q.334,2.88.663,5.759.647,3.741,1.294,7.491Q1775.862,1099.369,1776.369,1102.1Z" transform="translate(1313.911 744.142)" fill="#06aaf3"/>
    <path id="Path_138" data-name="Path 138" d="M1262.314,609.343c-.1-1.047-.3-2.1-.3-3.147q-.024-45.343,0-90.669c0-5.494,1.641-10.413,6.2-13.939a16.567,16.567,0,0,1,10.291-3.569c13.433-.034,26.866,0,40.3,0l.764,10.49c-1.453.737-.9,2-.62,3.007.7,2.524,1.726,4.964,2.355,7.5a29.358,29.358,0,0,0,2.991,7.557,4.168,4.168,0,0,1,.4,2.169c-.05,1.042-.416,2.068-.477,3.11-.093,1.647-1.061,2.453-2.429,3.108-1.814.867-3.553,1.888-5.324,2.845-3.248,1.084-6.462,2.286-9.753,3.227a14.713,14.713,0,0,0-9.18,7.424c-.981,1.771-2.076,3.482-3.094,5.234-1.061,1.827-2.121,3.657-3.14,5.51-2.161,3.938-4.293,7.888-6.435,11.834-.021,3.786-.05,7.576-.053,11.365,0,.835-.265,1.856,1.061,2.052.05,3.41.1,6.82.151,10.362h13.6c-.048-.8-.087-1.427-.132-2.18-3.76-.265-7.361.109-11.121-.265v-7.424l88.065.026v7.531h-11.3c-.122.835-.207,1.421-.294,2.007-2.158.353-4.309.825-6.483,1.031-3.057.286-6.133.384-9.2.552l-19.471,1.061c-3.071.17-6.138.355-9.206.53-6.491.358-12.993.745-19.473,1.061-4.921.236-9.848.337-14.767.578a7.379,7.379,0,0,0-2.052.8,17.517,17.517,0,0,0-9.339-2.357c-4.412.236-8.05,1.827-10.076,6.024C1263.86,605.617,1263.12,607.495,1262.314,609.343Zm37.123-96.383h-13.489c0,4-.032,7.846.05,11.691,0,.379.716.745,1.1,1.116.318-.443.894-.875.91-1.326.1-2.386.035-4.752.058-7.13,0-.75.122-1.5.2-2.4h3.675c2.121,0,4.224-.016,6.337,0,1.2-.005,1.6-.56,1.167-1.949Zm27.479,79.766h10.721v-2.182h-10.721Z" transform="translate(1630.151 1122.664)" fill="#f0eeff" opacity="0.8"/>
    <path id="Path_139" data-name="Path 139" d="M1916.4,778.793a6.473,6.473,0,0,1-.416-1.244c-.2-1.641-1.238-2.355-2.723-2.766-5.3-1.472-10.606-3.007-15.91-4.508-1.1-.308-2.214-.53-3.323-.8l-.215-3.63,1.79-7.748a47.867,47.867,0,0,0,5.658-12.409,15.3,15.3,0,0,0,.57-4.677c-.074-2.837-1.689-4.508-4.426-5.115a26.812,26.812,0,0,1-4.471-1.347c-5.006-2.1-9.946-2.917-14.82.316-.021-12.359-.077-24.721-.037-37.08,0-3.078,1.376-5.767,3.057-8.292,2.792-4.192,6.91-6.393,11.619-7.658a10.3,10.3,0,0,1,2.628-.159h50.325c1.236,0,2.469-.058,3.712-.09l1.856,1.671q-.239,1.551-.475,3.1c-.53,3.558-1.413,7.106-1.546,10.681-.265,6.966,1.528,13.563,4.168,20.014,1.625,3.977,4.266,6.1,8.421,6.552l.175,3.6-.249,1.66a11.016,11.016,0,0,0-5.277,3.858c-2.678.167-4.789,1.721-7.053,2.9q-9.4,4.521-18.8,9.031a3.768,3.768,0,0,0-1.938,2.352c-1.278,3.471-2.62,6.918-3.956,10.365Zm11.073-74.606h-18.9v17.686h2.949V707.056h2.917c3.712,0,7.406.026,11.107,0C1927.8,707.022,1927.9,706.847,1927.475,704.187Z" transform="translate(1177.444 987.756)" fill="#f2f0ff" opacity="0.8"/>
    <path id="Path_140" data-name="Path 140" d="M1781.353,1404.105a220.785,220.785,0,0,0,32.93,1.636,117.772,117.772,0,0,0,21.422-2.85c.345-.069.692-.127,1.037-.191q1.535,11.2,3.063,22.39.779,5.727,1.533,11.458c.923,6.714,1.832,13.43,2.774,20.152,1.1,7.849,2.723,15.666,3.214,23.554.53,8.6.045,17.259-.04,25.89-.021,2.386-.2,4.757-.265,7.135-.021.679-.109,1.233-.949,1.259-2.49-.018-4.982-.066-7.475-.026a6.074,6.074,0,0,0-1.652.488c-1.392-.1-1.291-1.262-1.448-2.145-2.18-12.317-4.277-24.66-6.5-36.955-1.739-9.612-3.394-19.251-6.894-28.452-1.371-3.6-2.424-7.332-3.622-11a4.257,4.257,0,0,0-.082-.8q-3.511-12.436-7.045-24.867a8.4,8.4,0,0,0-.631-1.214,168.823,168.823,0,0,0-7.051,19.484,102.188,102.188,0,0,0-4.89,24.021c-.461,5.971-.676,11.977-1.432,17.912-1.5,11.725-4.314,23.2-7.143,34.664-.755,3.063-1.615,6.1-2.421,9.119l-2.864.188-9.016.043-2.121-.332c.223-1.541.493-2.917.607-4.314.867-10.739,1.9-21.478,2.506-32.225.949-16.933,1.591-33.885,2.386-50.829C1779.614,1419.527,1779.773,1411.745,1781.353,1404.105Z" transform="translate(1254.078 457.856)" fill="#0c102b"/>
    <path id="Path_141" data-name="Path 141" d="M1345.59,846.46a6.577,6.577,0,0,1,2.052-.8c4.919-.241,9.845-.342,14.767-.578,6.494-.308,12.993-.695,19.474-1.061,3.068-.17,6.136-.355,9.206-.53l19.471-1.061c3.071-.167,6.146-.265,9.2-.552,2.174-.207,4.325-.679,6.483-1.031,1.456.146,2.917.384,4.365.414,3.041.066,6.083.021,9.339.021.069-2.652.127-4.993.188-7.332l21.043-.745a10.174,10.174,0,0,0,1.543,5.932,3.839,3.839,0,0,1,.17,1.806,31.2,31.2,0,0,0,.061,3.418c.061.456.65.843,1,1.262,0,7.329.016,14.661,0,21.99a17.676,17.676,0,0,1-2.177,8.87,14.641,14.641,0,0,1-6.526,6.324l-4.508-7.928-6.918,2.612c-1.83-.623-3.511-.024-5.2.61-1.061.4-2.148.74-3.214,1.127-1.968.713-4.131,1.082-5.385,3.049l-7.976,2.5a18.7,18.7,0,0,0-2.8-.422q-33.527-.032-67.049,0c-.9-2.524-1.856-5.038-2.689-7.578a28.419,28.419,0,0,1-.695-3.558c.3-1.273.61-2.546.9-3.821a32.478,32.478,0,0,0,1.193-10.1A13.476,13.476,0,0,0,1345.59,846.46Zm16.159,9.016c4.571.53,62.438.331,64.381-.209a9.122,9.122,0,0,0,.132-1.26,9.45,9.45,0,0,0-.228-1.326h-64.286Zm54.867,7.329c-5.415-.549-43.932-.316-45.99.294.05.8.106,1.623.164,2.508h45.825Z" transform="translate(1568.73 876.34)" fill="#e8ecfe" opacity="0.8"/>
    <path id="Path_142" data-name="Path 142" d="M1615.44,599.291c-.347-.419-.936-.8-1-1.262a31.2,31.2,0,0,1-.061-3.418,3.677,3.677,0,0,0-.17-1.806,10.175,10.175,0,0,1-1.543-5.932l-21.051.75v-2.652c1.249-.119,1.618-.939,1.535-2.031-.149-2-.435-4-.5-6.009-.22-6.666-.371-13.338-.552-20.006a2.275,2.275,0,0,0-.085-1.042c-1.535-2.715-.8-5.677-.97-8.538-.058-1.013-.109-2.026-.17-3.153h-15.358c-.644-.443-1.291-.878-1.925-1.326-4.423-3.166-9.546-4.547-14.724-5.741a23.609,23.609,0,0,0-2.166-1.374c-4.463-2.217-4.471-2.2-4.969-7.019.026-.337.053-.674.082-1.008a18.734,18.734,0,0,0,3.818-8.013c.186-.854.469-1.689.732-2.524.684-2.169,1.395-4.333,2.071-6.5.292-.944.178-1.758-.92-2.121l.838-10.564h40.01a17.2,17.2,0,0,1,11.89,4.243,14.206,14.206,0,0,1,4.187,6.589,28.76,28.76,0,0,1,1.021,8.339Q1615.409,558.223,1615.44,599.291Zm-23.91-86.336H1578.1c-.615,1.427-.1,1.946,1.185,1.944h6.6c1.108,0,2.217.077,3.625.13v10.323c1.4.438,2.021.13,2.018-1.092C1591.528,520.586,1591.531,516.906,1591.531,512.955Z" transform="translate(1417.25 1122.665)" fill="#f0eeff"/>
    <path id="Path_143" data-name="Path 143" d="M1217.33,1451.031h-3.373c-.371-4.6-.74-9.228-1.122-13.852-.986-11.948-1.9-23.9-3.007-35.839a50.978,50.978,0,0,1,1.448-18.609,53.471,53.471,0,0,0,1.445-20.152l9.336,1.464a6.461,6.461,0,0,0,.758-1.474c.949-4.622,1.938-9.238,2.742-13.886.716-4.128,1.225-8.294,1.8-12.447.506-3.633.978-7.271,1.464-10.906a71.136,71.136,0,0,0,23.22-3.779c2.728,12.2,5.454,24.395,8.22,36.68l3.015-.512a69.31,69.31,0,0,1,1.986,6.836,26.422,26.422,0,0,1,.464,6.539,56.572,56.572,0,0,1-1.2,7.833q-5.42,26.283-10.927,52.544c-.862,4.126-1.771,8.244-2.652,12.322l-2.021.315-7.379.019-2.917-.419c.191-1.209.342-2.243.514-3.275,1.877-11.317,3.8-22.629,5.619-33.956.629-3.916.766-7.923,1.573-11.794a96.188,96.188,0,0,1,3.248-10.9,9.856,9.856,0,0,0-.44-7.878c-4.107-8.6-7.992-17.3-11.975-25.962-.281-.61-.658-1.177-1.2-2.121-.355,1.116-.586,1.83-.8,2.548q-2.824,9.1-5.645,18.2c-2.058,6.645-4.508,13.155-4.829,20.261-.342,7.4-1.437,14.748-1.326,22.194.178,12.81.114,25.622.151,38.435-1.843.53-3.946.167-5.515,1.625Z" transform="translate(1668.689 517.488)" fill="#112e5d"/>
    <path id="Path_144" data-name="Path 144" d="M1921.844,542.253h-65.214a16.515,16.515,0,0,1-7.4-1.615c-4.982-2.434-7.194-6.605-7.281-11.911-.13-7.865-.032-15.729-.029-23.6.246-.085.671-.117.716-.265.716-2.429,2.577-2.439,4.632-2.424q12.183.1,24.371,0a33.274,33.274,0,0,0,4.163-.509c.029,2.121-.066,4.243.125,6.364s.66,4.107,1.021,6.234h8.538l20.486-.019h6.987c-.116-1.543-.13-2.771-.315-3.977-.366-2.344-.825-4.669-1.246-7h33.4c0,7.955.045,15.883-.016,23.825-.019,2.27-.329,4.54-.5,6.809-1.488.133-2.978.225-4.457.408-5.478.676-10.418,3.049-15.528,4.911A3.348,3.348,0,0,0,1921.844,542.253Zm6.43-14.982c0-2.487.034-4.844-.019-7.2-.019-.8.422-2.092-.854-2.121-1.479-.034-.981,1.366-1.023,2.222-.088,1.808-.064,3.625-.09,5.661h-3.232c-1.413,0-2.827-.019-4.242.034-.756.032-1.124.44-.711,1.405Zm-67.85-1.342v-8.506c-.84.689-1.45.952-1.461,1.236a57.124,57.124,0,0,0,.088,8.769c3.145,0,6.04.019,8.936,0,.774,0,1.106-.443.7-1.48Zm37.094-.265c-.679-.732-.963-1.326-1.265-1.326-2.325-.077-4.654-.042-7.464-.042.53.8.753,1.448,1.013,1.464a39.267,39.267,0,0,0,7.716-.093Z" transform="translate(1204.031 1119.777)" fill="#e4eaf7" opacity="0.53"/>
    <path id="Path_145" data-name="Path 145" d="M1393.729,1852.989c-.437.034-.878.093-1.326.1q-47.238.112-94.474.2c-5.375,0-10.747-.186-16.119-.289q.032-5.961.066-11.932c1.061-.042,2.121,0,3.147-.141,2.951-.387,4.129-2.068,3.519-4.956-.594-2.8-2.6-4.243-5.107-5.149q-.628-1.026-1.254-2.058l10.906-.077c.345,2.424.7,4.847,1.034,7.271.233,1.671.239,1.681,2.538,1.522v-8.093a14.09,14.09,0,0,1,5.481,4.967,7.207,7.207,0,0,0,5.468,3.3,40.986,40.986,0,0,0,6.576-.188c3.511-.355,3.577-2.071,3.086-4.813a5.058,5.058,0,0,0-1.814-2.424,12.987,12.987,0,0,0-2.516-1.4c3.6-.162,7.191-.469,10.787-.456,17.437.072,34.871.231,52.308.353q8.854.061,17.708.1c0,2.121-.048,4.243.034,6.343a9.489,9.489,0,0,0,.6,2.166q0,1.281.026,2.556a10.458,10.458,0,0,0-.628,2.386C1393.71,1845.845,1393.74,1849.42,1393.729,1852.989Z" transform="translate(1615.598 145.059)" fill="#ececec"/>
    <path id="Path_146" data-name="Path 146" d="M991.067,1842.445q-.034,5.963-.066,11.932l-13.208-.244h-2.121c-9.453-.053-18.906-.061-28.356-.18-8.024-.1-16.048-.318-24.071-.514-6.168-.151-12.335-.339-18.5-.53q-8.189-.247-16.382-.53a14.709,14.709,0,0,1-2.31-.456v-9.853l3.261-.265,2.577-9.58,22.968-.53c7.13-.17,14.258-.374,21.385-.53,9.951-.2,19.9-.337,29.854-.53,4.044-.082,8.087-.265,12.131-.392.159,1.591.215,3.182.5,4.728.278,1.493-.53,3.222,1.111,5.02.106-2.312.188-4.1.284-6.2a5.739,5.739,0,0,1,2.548,3.643c.894,2.933,2.917,4.288,5.767,4.693C989.317,1842.231,990.192,1842.334,991.067,1842.445Z" transform="translate(1906.418 143.683)" fill="#ececec"/>
    <path id="Path_147" data-name="Path 147" d="M2113.638,358.093h-33.4c-.186-.658-.421-1.3-.551-1.973-.568-2.885-1.106-5.775-1.655-8.663.215-1.641.849-3.36.56-4.9-.8-4.224-1.406-8.581-4.291-12.089-.551-2.877-1.079-5.759-1.662-8.631-.265-1.344-.658-2.67-.992-4,1.108-3.6,2.254-7.189,2.3-11.012l.448-2.819h27.229a12.038,12.038,0,0,1,12.014,12.06Q2113.667,337.081,2113.638,358.093Zm-18.633-35.733c.085,1,.191,1.838.215,2.675.04,1.326,0,2.652.037,3.954.03.888.332,1.562,1.626,1.222v-9.686c-3.182,0-6.165-.029-9.14.04-.342,0-.674.573-1.01.878.292.265.531.705.886.8a7.484,7.484,0,0,0,1.83.122c1.745.011,3.508,0,5.552,0Z" transform="translate(1035.192 1265.224)" fill="#f0eeff" opacity="0.53"/>
    <path id="Path_148" data-name="Path 148" d="M1875.864,356.568a34.72,34.72,0,0,1-4.16.509q-12.187.072-24.371,0c-2.055-.016-3.917,0-4.632,2.424-.045.143-.469.175-.716.265,0-14.207-.037-28.412,0-42.617a12.906,12.906,0,0,1,9.477-12.765,7.02,7.02,0,0,1,1.806-.294q14.428,0,28.852.019a8.936,8.936,0,0,1,1.061.117c-1.326,7.3-.862,14.366,2.84,20.99a29.948,29.948,0,0,1-3.3.886c-3.251.5-5.372,2.426-6.907,5.192-2.05,3.712-2.386,7.674-2.071,11.8.085,1.151.91,1.379,1.591,1.856Q1875.6,350.75,1875.864,356.568Zm-16.737-35.855v9.57c.371.053.647.156.695.093,1.75-2.368-.122-5.271,1.2-7.955,1.061,0,2.2.013,3.333,0,1.23-.016,2.466,0,3.686-.111.862-.087,1.23-.615.666-1.6Z" transform="translate(1203.972 1265.158)" fill="#f0eeff" opacity="0.53"/>
    <path id="Path_149" data-name="Path 149" d="M2006.882,1836.32l11.6.53c6.507.3,13.011.607,19.518.886,2.386.1,4.773.08,7.146.188,7.388.337,14.775.639,22.157,1.087,7.2.438,14.4.931,21.579,1.591,9.546.883,19.116,1.591,28.5,3.662,1.83.406,3.848.589,5.1,2.357-.4,1.411-1.564,1.739-2.652,1.965-4.131.859-8.252,1.877-12.431,2.365-8.122.947-16.273,1.673-24.427,2.307-8.421.655-16.856,1.135-25.288,1.607-7.56.422-15.115.734-22.687,1.061q-6.73.3-13.465.53-8.19.29-16.379.53-6.594.209-13.189.411v-9.384c.438-.037.878-.1,1.326-.106,3.789-.016,7.581.064,11.367-.053,2.994-.09,3.731-1.031,3.357-4.007C2007.7,1841.345,2007.267,1838.836,2006.882,1836.32Z" transform="translate(1093.745 139.215)" fill="#ececec"/>
    <path id="Path_150" data-name="Path 150" d="M706.585,1302.341c-3.816-3.389-7.753-6.653-11.4-10.2a23.061,23.061,0,0,1-6.7-10.606,15.386,15.386,0,0,1,1.244-10.779,42.98,42.98,0,0,0,4.107-21.274q-.294-4.741-.427-9.487a5.419,5.419,0,0,1,2.058-4.654c3.182-2.439,6.364-1.676,7.772,2.095a44.487,44.487,0,0,1,1.75,7.425c.774,4.144,1.419,8.313,2.143,12.463.628,3.625,3.132,5.751,6.117,7.424a8.005,8.005,0,0,0,2.214.5c1.628-3.572,4.508-5.3,7.809-6.571,4.113-1.559,8.276-3.031,11.882-5.661l1.127.947c-2.386,2.487-5.537,3.643-8.65,4.86-2.121.833-4.3,1.591-6.327,2.6a7.384,7.384,0,0,0-4.176,4.508c.957.363,1.7.607,2.418.923a100.978,100.978,0,0,1,9.811,4.452,10.44,10.44,0,0,1,5.457,9.848,22.789,22.789,0,0,1-2.5,10.121c-1.766.382-3.548.708-5.3,1.161-2.347.607-4.667,1.326-7,1.978.045-.7.05-1.4.143-2.092a15.35,15.35,0,0,0-.978-8.562c-3.182-6.969-9.1-10.606-16.042-13.258-.2.634-.321,1-.432,1.35A32.217,32.217,0,0,1,713.015,1278c3.739,3.495,6.266,7.578,5.733,12.993-.252,2.543-.4,5.094-.589,7.639A48.092,48.092,0,0,0,706.585,1302.341Z" transform="translate(2051.948 581.873)" fill="#56f6a5" opacity="0.56"/>
    <path id="Path_151" data-name="Path 151" d="M1780.287,1844.594v9.384c-6.425.215-12.85.477-19.277.628-7.491.178-14.984.284-22.478.379-6.8.088-13.592.111-20.386.188-4.752.053-9.5.143-14.252.217,0-3.569-.018-7.143.058-10.713a10.454,10.454,0,0,1,.628-2.386c1.822.6,3.628,1.657,5.47,1.726,7.565.278,15.141.329,22.711.292,2.013,0,2.67-.867,2.471-2.935-.31-3.235-.9-6.441-1.374-9.66.968-.026,1.938-.093,2.917-.074,8.8.17,17.594.326,26.389.53,6.767.167,13.523.411,20.3.623a11.7,11.7,0,0,1-5.637,3.625c-1.649.575-3.3,1.159-4.895,1.872a3.182,3.182,0,0,0-2.063,3.094c.066,1.591,1.389,2.121,2.676,2.482a18.36,18.36,0,0,0,3.092.53C1777.84,1844.525,1779.068,1844.536,1780.287,1844.594Z" transform="translate(1305.435 142.656)" fill="#ececec"/>
    <path id="Path_152" data-name="Path 152" d="M1177.3,1084.721c-1.686-1.262-3.357-2.548-5.067-3.781a5.348,5.348,0,0,1-2.5-5.46,59.579,59.579,0,0,1,1.989-8.986,118.306,118.306,0,0,0,4.868-21.338,34.776,34.776,0,0,1,4.749-12.791,7.754,7.754,0,0,1,4.489-3.916c4.075-1.024,8.22-1.75,12.346-2.6q.971,3.712,1.938,7.44c.761,3.959,1.591,7.907,2.27,11.879a64.848,64.848,0,0,1,.841,18.9c-1.387-.732-2.781-1.448-4.155-2.2-2.291-1.26-4.566-2.54-7.061-3.932-.862,1.442-1.559,2.652-2.283,3.818-.591.965-1.212,1.912-1.822,2.866l-1.4-5.139-.53-.045c-1.209,3.977-2.466,7.955-3.588,11.953-.247.872-.22,1.983,1.061,2.344l.928,1.037a5.2,5.2,0,0,0,.9,1.519c2.739,2.209,5.465,4.452,8.337,6.486,2.153,1.522,4.508,2.747,6.788,4.1l-2.7,6.77-1.352,2.2c-5.232-3.084-10.3-6.1-15.411-9.063a17.231,17.231,0,0,0-2.623-1.013Z" transform="translate(1698.019 734.781)" fill="#18488d"/>
    <path id="Path_153" data-name="Path 153" d="M603.47,1851.907v9.853q-6.722-.2-13.446-.387-3.182-.1-6.343-.207c-4.749-.172-9.5-.265-14.247-.549-6.751-.392-13.494-.925-20.242-1.379-3.861-.265-7.729-.419-11.585-.732-10.241-.828-20.489-1.639-30.576-3.712-1.933-.4-4-.716-5.531-2.386.573-1.591,2.007-2,3.32-2.291a106.74,106.74,0,0,1,10.606-2.01q11.776-1.36,23.6-2.3c8.22-.658,16.482-1.13,24.732-1.591,4.738-.265,9.49-.374,14.234-.552.8,2.652,1.591,5.3,2.429,8.021h7.655c.955.037,1.909.1,2.866.106Q597.2,1851.857,603.47,1851.907Z" transform="translate(2189 133.822)" fill="#ececec"/>
    <path id="Path_154" data-name="Path 154" d="M843.388,1750.432q-6.268-.061-12.531-.127c-.957,0-1.912-.069-2.866-.106l.016-44.282.666-.207,1.5-.04,7.464.024h7.186l1.93-.125,11.58.233c-3.1,11.837-6.1,23.313-9.1,34.786-.854,3.182-1.71,6.364-2.575,9.58Z" transform="translate(1949.082 235.296)" fill="#e9e7d6"/>
    <path id="Path_155" data-name="Path 155" d="M2143.43,631.595a3.318,3.318,0,0,1,2.445-2.766c5.11-1.856,10.05-4.243,15.528-4.911,1.479-.183,2.97-.265,4.457-.408,1.23.048,2.463.162,3.694.133,3.537-.088,6.581,1.716,9.856,2.6,1.668.453,2.665,2.087,3.161,3.712a51.559,51.559,0,0,1,1.326,6.165,23.84,23.84,0,0,1,.188,2.9,45.45,45.45,0,0,1-6.566,21.067c-.655,1.122-1.49,2.14-2.24,3.208a4,4,0,0,1-.342-.963c-.194-2.182-.414-4.362-.486-6.549a5.341,5.341,0,0,1,.653-1.92,35.341,35.341,0,0,0,1.76-4.383c.486-1.912-.53-3.012-2.513-3.086a4.94,4.94,0,0,0-5.3,4.709c-.066,1.026,0,2.058,0,3.02-1.57.432-2.728,1.246-4.16.408.392-1.236.729-2.413,1.14-3.564a17.7,17.7,0,0,0,.912-7.271c-.154-2.14-1.2-3.5-3.182-3.556-2.887-.088-5.789.093-8.679.249-2.946.162-5.86,1.358-8.835.207l-1.856-1.671C2143.345,636.58,2143.555,634.069,2143.43,631.595Z" transform="translate(982.446 1030.436)" fill="#f45441" opacity="0.8"/>
    <path id="Path_156" data-name="Path 156" d="M1212.317,1322.68c-.485,3.635-.957,7.273-1.464,10.906-.575,4.152-1.084,8.318-1.8,12.447-.8,4.648-1.793,9.265-2.742,13.886a6.462,6.462,0,0,1-.758,1.474l-9.336-1.464-9.116-1.416c1.2-13.722,2.678-27.2,5.173-40.554.711.331,1.448.613,2.121,1,3.792,2.188,7.552,4.431,11.354,6.6,2.371,1.352,2.734,1.164,4.113-1.156.8-1.326,1.779-2.527,2.678-3.784C1212.468,1321.3,1212.394,1321.993,1212.317,1322.68Z" transform="translate(1685.194 520.127)" fill="#18488d" stroke="#18488d" stroke-width="1"/>
    <path id="Path_157" data-name="Path 157" d="M774.884,1704.734l-.016,44.282h-7.655c-.825-2.721-1.625-5.372-2.429-8.021-1.326-5.279-2.636-10.567-4-15.838-1.535-5.955-3.129-11.9-4.68-17.853-.193-.745-.265-1.519-.406-2.283l2.795-1.061,2.087.53h9.49Z" transform="translate(2002.204 236.479)" fill="#e2d1d1"/>
    <path id="Path_158" data-name="Path 158" d="M1282.432,876.595a13.459,13.459,0,0,1,5.327,12.818c-2.866,1.716-5.637,3.619-8.623,5.091A18,18,0,0,1,1271,896.36c-.265-.708-.461-1.294-.7-1.856-.435-1.018-1-1.93-2.312-1.774-1.016.122-1.548,1.061-1.3,2.789a43.319,43.319,0,0,0,1.175,4.582c-.777,1.079-.711,2.469-.4,4.015a15.51,15.51,0,0,1-.6,8.355c-.347.989-.78,1.877-2.063,1.039-5.25-8.65-6.152-17.962-4.219-27.707.8-1.856,1.554-3.712,2.432-5.539,2.034-4.2,5.672-5.788,10.076-6.024A17.5,17.5,0,0,1,1282.432,876.595Z" transform="translate(1631.888 846.205)" fill="#161d4f"/>
    <path id="Path_159" data-name="Path 159" d="M1866.086,876.614c4.874-3.235,9.811-2.418,14.82-.316a26.805,26.805,0,0,0,4.473,1.347c2.736.618,4.351,2.278,4.426,5.115a15.289,15.289,0,0,1-.57,4.677,47.866,47.866,0,0,1-5.659,12.41,20.733,20.733,0,0,1-3.084.53c-4.887.093-7.859-3.275-11.155-6a10.71,10.71,0,0,0,.53-1.761,12.722,12.722,0,0,0,.236-3.105c-.066-.6-.655-1.546-1.087-1.591a2.442,2.442,0,0,0-1.938.9,11.01,11.01,0,0,0-1.061,2.917c-.469,1.557-.774,1.742-2.572,1.421.236-4.417.236-4.417-1.1-6.128a5.233,5.233,0,0,1-.231-4.571A15.265,15.265,0,0,1,1866.086,876.614Z" transform="translate(1189.471 846.035)" fill="#2a383e"/>
    <path id="Path_160" data-name="Path 160" d="M1277.728,955.608c1.283.838,1.716-.05,2.063-1.039a15.509,15.509,0,0,0,.6-8.355c-.316-1.546-.382-2.935.4-4.015a43.324,43.324,0,0,1-1.175-4.582c-.249-1.721.284-2.667,1.3-2.79,1.326-.156,1.877.756,2.312,1.774.241.567.438,1.153.7,1.856a18,18,0,0,0,8.138-1.856c2.986-1.472,5.757-3.375,8.623-5.091a32.487,32.487,0,0,1-1.193,10.1c-.292,1.275-.6,2.548-.9,3.824-.559,1.061-1.1,2.143-1.681,3.2a7.927,7.927,0,0,1-5.234,4.335c-3.049,0-5.176-2-7.862-4.113a11.377,11.377,0,0,0,7.69,6.56c.464.483.894,1.005,1.4,1.437.591.5,1.249.931,1.877,1.392q.8,2.853,1.573,5.7c-1.429,1.273-2.585,2.779-4.672,3.291a12.569,12.569,0,0,1-10.959-2.326c-.488-.355-1.031-.634-1.548-.949q-.97-3.712-1.938-7.44Z" transform="translate(1618.956 804.105)" fill="#f49b87"/>
    <path id="Path_161" data-name="Path 161" d="M1998.357,297.363c-3.712-6.629-4.16-13.688-2.84-20.99,1.167-2.355,2.241-4.76,3.55-7.032a5.676,5.676,0,0,1,2.349-2.039c5.449-2.715,14.528-.461,16.1,7.4.1.517.281,1.018.424,1.525q-.218,1.408-.435,2.816c-.75.406-1.519.782-2.246,1.225a21.277,21.277,0,0,1-10.357,3.4c-.265-.438-.456-.727-.6-1.039-.369-.777-.883-1.374-1.827-1.156-.992.225-1.061,1.085-1.031,1.888a19.413,19.413,0,0,0,.347,2.333c.1.6.506,1.3.31,1.761-.687,1.591-.122,3.121-.088,4.677.032,1.384,0,2.768,0,4.062l-2.882,1.241Z" transform="translate(1091.634 1293)" fill="#112e5d" opacity="0.53"/>
    <path id="Path_162" data-name="Path 162" d="M923.978,1141.979c1.326-.072,2.652-.061,3.954-.231,4.431-.575,7.69-2.636,9.31-7.061a58.569,58.569,0,0,1,3.67-8.191,25.834,25.834,0,0,1,3.858-4.945,3.6,3.6,0,0,1,4.6-.756,20.8,20.8,0,0,1,4.656,3.394,6.165,6.165,0,0,1,1.456,6.136c-.965,3.855-3.089,7.093-5.176,10.357-2.567,4.015-5.139,8.008-6.793,12.529a19.386,19.386,0,0,0,1.326,16.562c2.055,3.81,3.94,7.663,4.582,12.038a13.287,13.287,0,0,1-1.938,9.368c-1.408,2.193-3.254,4.1-4.863,6.17-4.227,5.433-8.461,10.872-10.426,17.631a12.454,12.454,0,0,0,1.236,9.238c1.5,2.986,3.277,5.833,4.911,8.75,1.031,1.856,2.161,3.649,3,5.568,2.318,5.34,1.326,9.745-3.068,13.216-2.278,1.806-4.558,3.609-6.8,5.457-1.135.936-2.182,1.978-3.272,2.97l-.591-1.2c2.145-3.1,5.152-5.255,8.085-7.5a21.736,21.736,0,0,0,3.023-2.556c1.938-2.159,2.917-4.656,1.761-7.541a58.362,58.362,0,0,0-2.707-5.974c-1.8-3.339-3.9-6.52-5.605-9.9a15.786,15.786,0,0,1-.53-14.053,52.767,52.767,0,0,1,6.894-11.561c2.071-2.63,4.3-5.139,6.316-7.806a13.121,13.121,0,0,0,2.089-13.221,70.466,70.466,0,0,0-3.413-7.732,22.357,22.357,0,0,1-2.965-10.323,28.357,28.357,0,0,1,4.367-14.788c1.689-2.795,3.564-5.484,5.141-8.337,1.4-2.532,2.522-5.216,3.712-7.851,1.061-2.3-.841-5.3-4.752-7.3-1.747-.888-3.479-.106-5.269,2.294-.1.135-.08.369-.191.485-2.7,2.861-3.548,6.629-4.773,10.158a11.663,11.663,0,0,1-6.759,6.984,15.237,15.237,0,0,1-8.061.883Z" transform="translate(1878.552 665.389)" fill="#41b3ba"/>
    <path id="Path_163" data-name="Path 163" d="M1502.893,480.662l-.835,10.567c-.175.761-.35,1.522-.53,2.286a3.448,3.448,0,0,1-1.713,2.614c-.331-2.386-.631-4.654-.96-6.913a2.482,2.482,0,0,0-2.2-2.254,27.726,27.726,0,0,0-11.307-.156c-1.7.339-3.336.963-4.839,1.408-.557,3.222-1.061,6.083-1.652,9.564a17.225,17.225,0,0,1-1.079-2.463c-.323-1.368-.514-2.768-.761-4.152l-.753-10.5c1.808-4.675,5.489-6.4,10.2-6.247a64.687,64.687,0,0,1,6.51.825,38.6,38.6,0,0,0,4.4.594C1501.177,475.918,1502.312,476.846,1502.893,480.662Z" transform="translate(1472.708 1140.003)" fill="#2a383e" opacity="0.8"/>
    <path id="Path_164" data-name="Path 164" d="M1860.906,921.83c1.326,1.71,1.326,1.71,1.1,6.128,1.8.321,2.1.135,2.572-1.421a10.971,10.971,0,0,1,1.061-2.917,2.442,2.442,0,0,1,1.938-.9c.432.045,1.021.994,1.087,1.591a12.7,12.7,0,0,1-.236,3.105,14.138,14.138,0,0,1-.53,1.761c3.3,2.723,6.268,6.1,11.155,6a19.436,19.436,0,0,0,3.084-.53l-1.79,7.751c-1.9.188-3.795.422-5.7.549-3.116.209-6.237.347-9.355.514a1.956,1.956,0,0,0-.114-.445l-.562-.5c-2.121-.782-3.137-2.532-3.712-4.537a28.148,28.148,0,0,1,0-16.146Z" transform="translate(1190.923 811.218)" fill="#f49b87"/>
    <path id="Path_165" data-name="Path 165" d="M1965.855,1841.855c-1.222-.058-2.45-.069-3.664-.188a18.35,18.35,0,0,1-3.092-.53c-1.286-.355-2.609-.878-2.675-2.482a3.2,3.2,0,0,1,2.063-3.094c1.591-.713,3.246-1.3,4.9-1.872a11.7,11.7,0,0,0,5.637-3.625l2.021-1.734,9-.419q.362,1.109.721,2.219c.384,2.516.822,5.038,1.138,7.549.374,2.975-.363,3.917-3.357,4.007-3.786.117-7.578.037-11.368.053C1966.735,1841.751,1966.295,1841.818,1965.855,1841.855Z" transform="translate(1119.868 145.395)" fill="#161d4f"/>
    <path id="Path_166" data-name="Path 166" d="M710.974,1481.706a47.089,47.089,0,0,1,11.561-3.686q.422,8.456.838,16.915c-1.016.236-2.055.4-3.042.719-3.4,1.111-6.777,2.3-10.179,3.41a29.786,29.786,0,0,1-3.041.657,5.84,5.84,0,0,1,.679-1.4c1.668-1.92,3.423-3.765,5.078-5.7.8-.944,2.042-1.742,1.676-3.354-2.4-.2-4.773-.316-7.112-.6-5.181-.626-9.864-2.36-13.452-6.38q.469-.53.936-1.077c3.232,3.487,7.425,5.038,11.956,5.741,2.479.374,5.006.427,7.69.639C714.339,1484.763,712.2,1483.514,710.974,1481.706Z" transform="translate(2047.558 402.508)" fill="#4ccfb1" opacity="0.56"/>
    <path id="Path_167" data-name="Path 167" d="M1246.526,1827.469c-.875-.111-1.75-.215-2.622-.337-2.861-.406-4.874-1.761-5.767-4.693a5.739,5.739,0,0,0-2.548-3.643c-.1,2.1-.178,3.887-.284,6.2-1.644-1.8-.833-3.527-1.111-5.02-.289-1.554-.345-3.15-.5-4.728.077-1.893.109-3.8,1.371-5.388l.647.037c1.01,1.739,1.9,3.566,3.057,5.2,2.543,3.6,5.221,4.155,9.32,2.121,2.506.92,4.508,2.347,5.107,5.149.61,2.888-.568,4.569-3.519,4.956C1248.637,1827.464,1247.577,1827.427,1246.526,1827.469Z" transform="translate(1650.958 158.659)" fill="#161d4f"/>
    <path id="Path_168" data-name="Path 168" d="M640.861,1468.078q-.464.53-.936,1.077c-.955-.909-1.973-1.761-2.853-2.739a13.064,13.064,0,0,0-6.234-3.805c-2.174-.623-4.4-1.352-6.709-.43-1.647.658-2.421,1.782-1.938,3.479a14.254,14.254,0,0,0,1.843,4.322,54.881,54.881,0,0,0,5.221,6.271,8.89,8.89,0,0,1,2.333,9.434c-.581,1.93-.939,3.927-1.384,5.9a5.9,5.9,0,0,0,1.644,5.807,19.888,19.888,0,0,0,4.9,3.474c2.917,1.434,6.011,2.49,8.989,3.794a7.361,7.361,0,0,1,1.655,1.44c-.019.392-.037.8-.053,1.177-3.728-1.591-7.467-3.14-11.171-4.773a20.112,20.112,0,0,1-3.463-1.914c-3.426-2.408-4.911-5.688-4.076-9.867a37.784,37.784,0,0,1,1.326-5.388c1.132-3.163.172-5.619-2.015-7.939a61.707,61.707,0,0,1-5.242-6.287,14.662,14.662,0,0,1-1.967-4.293c-1.1-3.627.827-6.364,4.579-6.629a16.224,16.224,0,0,1,10.946,3.23A38.692,38.692,0,0,1,640.861,1468.078Z" transform="translate(2101.613 415.645)" fill="#56f6a5"/>
    <path id="Path_169" data-name="Path 169" d="M1201.417,1269.132c-.9,1.257-1.893,2.461-2.678,3.784-1.379,2.32-1.742,2.508-4.113,1.156-3.8-2.167-7.562-4.41-11.354-6.6-.676-.387-1.413-.668-2.121-1q-3.113-1.938-6.234-3.874c-.894-.549-1.8-1.079-2.957-1.771l7.037-12.94,1.029,1.061c-1.75,3.447-3.5,6.894-5.375,10.574l22.334,12.884c2.328-4.06,4.471-7.8,6.61-11.532l1.631.777C1203.755,1264.036,1201.995,1266.279,1201.417,1269.132Z" transform="translate(1696.32 571.617)" fill="#41525d"/>
    <path id="Path_170" data-name="Path 170" d="M2362.73,592.43h32.31c.247.687.5,1.387.769,2.121-.384.17-.612.355-.84.355q-15.07.042-30.138.045C2363.109,594.968,2363.109,594.869,2362.73,592.43Z" transform="translate(821.295 1053.275)" fill="#e8ecfe"/>
    <path id="Path_171" data-name="Path 171" d="M1748.736,1067.672q-.968,3.667-1.938,7.334l-7.085,1.456c.186-2.692,3.1-2.105,3.906-4.062a7.055,7.055,0,0,0-1.344-1.262,22.81,22.81,0,0,0-3.354-1.541c-1.488-.53-3.047-.87-4.532-1.408-.912-.329-2.1-.568-1.84-2.259.827.1,1.591.207,2.355.265q5.25.414,10.5.8l1.3.456Z" transform="translate(1284.405 705.328)" fill="#f49b87"/>
    <path id="Path_172" data-name="Path 172" d="M881.166,1201.533v1.36c-.965,0-1.93.042-2.89,0-3.5-.191-5.078,1.061-5.5,4.558a39.33,39.33,0,0,0-.109,4.227c-.026,2.2.146,4.428-.1,6.608-.512,4.55-1.808,8.8-5.728,11.723l-1.127-.947c4.884-4.8,5.712-10.811,5.385-17.27a27.268,27.268,0,0,1,.639-7.013,4.284,4.284,0,0,1,4.441-3.447C877.849,1201.289,879.512,1201.456,881.166,1201.533Z" transform="translate(1921.364 605.835)" fill="#4ccfb1"/>
    <path id="Path_173" data-name="Path 173" d="M1662,280.033c4.33,0,8.265-.053,12.2.029,1.326.029,1.591.7,1.591,2.5,0,1.167-.22,2.18-1.644,2.2q-5.266.056-10.537,0a1.489,1.489,0,0,1-1.591-1.692C1662,282.2,1662,281.338,1662,280.033Z" transform="translate(1336.219 1282.848)" fill="#e8ecfe"/>
    <path id="Path_174" data-name="Path 174" d="M1676.172,355.839V359.9H1662.76v-3.752c2.121-.66,4.33-.223,6.489-.3S1673.629,355.839,1676.172,355.839Z" transform="translate(1335.661 1227.174)" fill="#e4eaf7"/>
    <path id="Path_175" data-name="Path 175" d="M1675.971,322.083H1662.66V318h10.84c2.538.032,2.888.414,2.739,2.951A6.877,6.877,0,0,1,1675.971,322.083Z" transform="translate(1335.734 1254.936)" fill="#e4eaf7"/>
    <path id="Path_176" data-name="Path 176" d="M1877.246,1000.523c3.118-.167,6.239-.3,9.355-.514,1.9-.127,3.8-.361,5.7-.549l.215,3.627a1.269,1.269,0,0,1-.265.061q-8.122.321-16.239.634Z" transform="translate(1178.956 754.173)" fill="#e2d1d1"/>
    <path id="Path_177" data-name="Path 177" d="M2473.14,603.974c2.864,0,5.131-.034,7.393.029a1.763,1.763,0,0,1,1.3.65c.771,1.326,1.4,2.75,2.3,4.577-2.89,0-5.3.042-7.721-.045-.392-.013-.894-.53-1.124-.936C2474.606,607.058,2474.033,605.793,2473.14,603.974Z" transform="translate(740.162 1044.798)" fill="#e8ecfe"/>
    <path id="Path_178" data-name="Path 178" d="M721.93,1634.637c.016-.392.034-.8.053-1.177a11.9,11.9,0,0,1,3.041,1.374,23.7,23.7,0,0,1,3.779,4.02c3.086,4.211,5.022,9.031,6.963,13.836l-2.087-.53c-1.188-2.617-2.371-5.237-3.572-7.851A23.256,23.256,0,0,0,721.93,1634.637Z" transform="translate(2027.019 288.285)" fill="#4ccfb1"/>
    <path id="Path_179" data-name="Path 179" d="M1734.555,1011.891l-1.3-.456-10.562-19.685-6.719,2.121.024-.949,6.918-2.612,4.508,7.928q2.888,5.417,5.767,10.837C1733.672,1010,1734.1,1010.955,1734.555,1011.891Z" transform="translate(1296.56 760.897)" fill="#41525d"/>
    <path id="Path_180" data-name="Path 180" d="M903.732,1643.43q.3.6.591,1.2c-.8,1.122-1.591,2.249-2.386,3.365l-8.543,11.932-1.933.125c1.241-2.007,2.386-4.078,3.739-6C897.811,1650.322,900.293,1646.5,903.732,1643.43Z" transform="translate(1902.442 280.958)" fill="#4ccfb1"/>
    <path id="Path_181" data-name="Path 181" d="M1734.136,280.257a16.209,16.209,0,0,1,1.787-.217,2.464,2.464,0,0,1,2.121,3.948c-.387.53-1.488.668-2.286.764a1.336,1.336,0,0,1-1.591-1.344C1734.112,282.464,1734.136,281.5,1734.136,280.257Z" transform="translate(1283.214 1282.831)" fill="#e8ecfe"/>
    <path id="Path_182" data-name="Path 182" d="M1734.82,356.62h3.842V360.5h-3.842Z" transform="translate(1282.708 1226.557)" fill="#e8ecfe"/>
    <path id="Path_183" data-name="Path 183" d="M1738.532,322.076h-3.712v-3.654C1738.315,317.266,1739.179,318.03,1738.532,322.076Z" transform="translate(1282.708 1254.986)" fill="#e8ecfe"/>
    <path id="Path_184" data-name="Path 184" d="M2020.55,1825.264l-9,.419.1-.9a6.369,6.369,0,0,1,1.652-.488c2.493-.04,4.985,0,7.475.026Z" transform="translate(1079.356 148.065)" fill="#18488d"/>
    <path id="Path_185" data-name="Path 185" d="M1878.12,999.9l.562.5Z" transform="translate(1177.406 753.85)" fill="#e2d1d1"/>
    <path id="Path_186" data-name="Path 186" d="M2253.783,871.5c6.629,2.172,13.223,4.391,19.868,6.483a6.043,6.043,0,0,1,4.1,4.057,185.274,185.274,0,0,1,8.355,29.229,10.509,10.509,0,0,0,.4,1.233c.647,4.094,1.326,8.18,1.928,12.282.652,4.526,1.217,9.066,1.856,13.82H2271.19c-.769-7.69-3.447-14.69-7.706-21.818-1.61,7.557-1.517,14.671-2.164,21.56-.353.193-.5.345-.647.345q-13.258,0-26.492-.026a15.627,15.627,0,0,1,.072-2.386c.636-3.537,1.342-7.061,2.018-10.59q2.323-12.142,4.643-24.284c.332-1.737.212-3.328-1.371-4.508a9.665,9.665,0,0,1-1.326-1.615c1.885-1.116,3.527-2.275,5.322-3.1a6.376,6.376,0,0,0,3.349-3.816C2249.1,882.711,2251.47,877.116,2253.783,871.5Z" transform="translate(915.765 848.203)" fill="#2a383e" opacity="0.8"/>
    <path id="Path_187" data-name="Path 187" d="M2022.64,928.575l8.321-21.409c1.326-3.447,2.678-6.894,3.956-10.365a3.727,3.727,0,0,1,1.938-2.352c6.276-2.991,12.537-6.017,18.8-9.029,1.13.655.56,1.461.233,2.278q-2.594,6.5-5.144,13.014c-.506,1.3-.97,2.471.387,3.81,2.09,2.06,1.968,2.6.162,4.924a3.136,3.136,0,0,1-.53.583,3.44,3.44,0,0,0-1.241,3.3c.2,2.36.392,4.723.517,7.088q.311,5.8.53,11.593c.2,5.629.342,11.259.509,16.888h-10.776c-.459-2.5-.909-4.961-1.45-7.918-1.172,2.98-2.153,5.481-3.155,8.034h-9.954a108.837,108.837,0,0,0-3.1-20.439Z" transform="translate(1071.207 837.974)" fill="#2a383e" opacity="0.8"/>
    <path id="Path_188" data-name="Path 188" d="M2238.957,867.738c-2.312,5.616-4.68,11.211-6.895,16.864a6.327,6.327,0,0,1-3.349,3.816,61.018,61.018,0,0,0-5.322,3.105,9.673,9.673,0,0,0,1.325,1.615c1.591,1.191,1.7,2.781,1.371,4.508q-2.314,12.142-4.643,24.283c-.676,3.529-1.381,7.053-2.018,10.591a15.5,15.5,0,0,0-.072,2.386l-3.031.2c-.347-2.524-.772-5.038-1.023-7.573-.491-4.9-1.061-9.811-1.273-14.722-.347-8.034,2.121-15.459,5.5-22.621,1.273-2.7,2.7-5.33,4.054-7.992,2.257-3.028,4.468-6.1,6.78-9.079,1.777-2.3,3.681-4.508,5.526-6.738Z" transform="translate(930.591 851.965)" fill="#41525d"/>
    <path id="Path_189" data-name="Path 189" d="M1998.643,1283.919q-.329-2.88-.663-5.759h85.228v5.555a20.692,20.692,0,0,1-2.121.215Q2039.865,1283.951,1998.643,1283.919Z" transform="translate(1089.328 549.373)" fill="#a0d9fe" opacity="0.8"/>
    <path id="Path_190" data-name="Path 190" d="M2142.979,947.876l-9.458.156a14.007,14.007,0,0,0,.557-2.031c.562-4.545.989-9.108,1.628-13.642,1.764-12.463,3.54-24.944,5.465-37.388.578-3.712,1.671-7.356,2.525-11.031a6.426,6.426,0,0,1,.53,1.668c.217,4.1.371,8.22.565,12.317a7.739,7.739,0,0,0,.3,1.286l3.346-3.057a4.868,4.868,0,0,1,.265,3.484,123.911,123.911,0,0,0-6.364,37.433C2142.289,940.658,2142.756,944.269,2142.979,947.876Z" transform="translate(989.728 839.061)" fill="#e2d1d1" opacity="0.8"/>
    <path id="Path_191" data-name="Path 191" d="M2167.439,960.875c-.223-3.606-.69-7.218-.626-10.819a123.911,123.911,0,0,1,6.364-37.433,5.012,5.012,0,0,0-.265-3.484c1.578-2.5,2.768-5.263,5.189-7.509l1.3,3.816c0,.265-.04.53-.029.8.063,1.753.843,3.625-1.215,4.945-.392.265-.289,1.326-.374,2.013-.427,3.4-.769,6.815-1.265,10.2a158.269,158.269,0,0,0-1.61,32.615c.1,1.655-.042,3.322-.072,4.985Z" transform="translate(965.267 826.062)" fill="#fc2142" opacity="0.8"/>
    <path id="Path_192" data-name="Path 192" d="M2136.6,876.986c-.854,3.675-1.946,7.313-2.524,11.031-1.925,12.447-3.712,24.925-5.465,37.388-.639,4.534-1.061,9.1-1.628,13.643a14.009,14.009,0,0,1-.557,2.031l-.979-.223c-.167-5.629-.313-11.259-.509-16.888q-.2-5.8-.531-11.593c-.124-2.365-.318-4.728-.517-7.088a3.44,3.44,0,0,1,1.241-3.3,3.128,3.128,0,0,0,.53-.583c1.806-2.328,1.928-2.864-.162-4.924-1.358-1.339-.894-2.508-.387-3.81q2.537-6.523,5.144-13.014c.326-.817.9-1.623-.233-2.278,2.265-1.177,4.375-2.731,7.053-2.9C2136.936,875.318,2136.772,876.151,2136.6,876.986Z" transform="translate(996.817 846.013)" fill="#41525d" opacity="0.8"/>
    <path id="Path_193" data-name="Path 193" d="M2418.21,1292.943a18.844,18.844,0,0,1-1.833,8.156,16.3,16.3,0,0,1-30.546-4.736,36.193,36.193,0,0,1-.231-3.951,15.454,15.454,0,0,1,1.888-6.738c2.455-4.773,6.5-7.276,11.587-8.056a16.111,16.111,0,0,1,17.734,9.75A38.874,38.874,0,0,1,2418.21,1292.943Zm-16.223-12.221c-6.939-.35-13.057,5.751-13.059,12.828,0,6.247,4.4,12.961,12.884,13.03a12.745,12.745,0,0,0,13.059-12.863,12.91,12.91,0,0,0-12.884-13Z" transform="translate(804.49 549.927)" fill="#67b5ff"/>
    <path id="Path_194" data-name="Path 194" d="M2196.509,971.5c.029-1.663.17-3.33.072-4.985a158.907,158.907,0,0,1,1.609-32.615c.5-3.389.838-6.8,1.265-10.2.085-.695-.019-1.758.374-2.013,2.058-1.326,1.278-3.182,1.214-4.945,0-.265.019-.53.029-.8.856,2.182,1.7,4.373,2.58,6.547.265.65.642,1.254,1.082,2.1,1.641-1.946,2.959-3.569,4.356-5.118a5.707,5.707,0,0,1,1.5-.88c-1.355,2.652-2.782,5.3-4.054,7.992-3.373,7.159-5.85,14.584-5.5,22.621.21,4.916.782,9.811,1.273,14.722.265,2.535.676,5.038,1.024,7.573Z" transform="translate(943.571 815.547)" fill="#e2d1d1"/>
    <path id="Path_195" data-name="Path 195" d="M2006.375,1333.538q-.509-2.734-1.016-5.46l37.26-.019v5.181c-1.23.053-2.174.13-3.118.133h-29.963C2008.489,1333.387,2007.431,1333.485,2006.375,1333.538Z" transform="translate(1083.905 512.705)" fill="#a0d9fe" opacity="0.8"/>
    <path id="Path_196" data-name="Path 196" d="M2408.34,1147.421v-2.954h15.645c.1-.984.236-1.734.241-2.485.024-3.535,0-7.069.021-10.606.021-2.3.25-2.439,2.869-1.856v17.829C2420.813,1147.5,2414.614,1147.416,2408.34,1147.421Z" transform="translate(787.779 658.814)" fill="#67b5ff"/>
    <path id="Path_197" data-name="Path 197" d="M2000.48,1183.417q.231-2.583.459-5.157l.578.035v2.121h15.774v2.949c-2.792.215-5.568.082-8.355.1C2006.117,1183.473,2003.3,1183.433,2000.48,1183.417Z" transform="translate(1087.491 622.784)" fill="#67b5ff"/>
    <path id="Path_198" data-name="Path 198" d="M2220.461,1182.51v2.408h-14.674c-.053-.761-.1-1.485-.167-2.408Z" transform="translate(936.746 619.661)" fill="#67b5ff"/>
    <path id="Path_199" data-name="Path 199" d="M2002.788,1139.928l-.578-.034q.416-5.226.833-10.45a32.439,32.439,0,0,1,.4-3.394,73.388,73.388,0,0,1,2.036,13.332Z" transform="translate(1086.219 661.15)" fill="#0488c2"/>
    <path id="Path_200" data-name="Path 200" d="M2014.486,1383.347q-.4-2.652-.8-5.287h64.556v5.134c-.84.056-1.684.162-2.529.162Q2045.1,1383.347,2014.486,1383.347Z" transform="translate(1077.784 475.963)" fill="#a0d9fe"/>
    <path id="Path_201" data-name="Path 201" d="M2148.443,686.613c2.975,1.151,5.889-.045,8.835-.207,2.89-.156,5.791-.337,8.679-.249,1.975.058,3.02,1.416,3.182,3.556a17.7,17.7,0,0,1-.912,7.271c-.411,1.151-.748,2.328-1.14,3.564,1.432.838,2.591.024,4.161-.408,0-.963-.056-1.994,0-3.02a4.927,4.927,0,0,1,5.3-4.709c1.983.074,3,1.175,2.514,3.087a35.678,35.678,0,0,1-1.761,4.383,5.336,5.336,0,0,0-.652,1.92c.071,2.188.292,4.367.485,6.549a4.012,4.012,0,0,0,.342.963c-2.217,4.243-1.122,8.525-.133,12.768.634,2.721,1.575,5.367,2.387,8.048-.432.546-.843,1.111-1.3,1.636-3.89,4.42-8.907,7.34-13.849,10.341-.973.591-1.7.122-2.082-.846-1.2-3.01-2.368-6.032-3.548-9.05.082-.554.167-1.108.25-1.66,1.856-1.1,3.786-2.076,5.518-3.338,1.283-.936,2.964-1.61,3.351-3.463.037-.074.074-.148.114-.223-.045.069-.09.135-.133.2a9.466,9.466,0,0,0-1.9.843,15.449,15.449,0,0,1-7.122,2.386c-4.155-.453-6.8-2.575-8.422-6.552-2.652-6.451-4.423-13.049-4.168-20.014.132-3.574,1-7.122,1.546-10.681Q2148.2,688.161,2148.443,686.613Zm20.9,36.229.117-.2-.18-.027Z" transform="translate(980.257 984.417)" fill="#f49b87" opacity="0.8"/>
    <path id="Path_202" data-name="Path 202" d="M2177.685,854.172c1.18,3.018,2.349,6.04,3.548,9.05.385.968,1.108,1.437,2.082.846,4.943-3.015,9.959-5.934,13.849-10.341.462-.53.873-1.09,1.3-1.636l6.5,3.8c-1.856,2.243-3.749,4.444-5.526,6.74-2.307,2.962-4.523,6.038-6.78,9.061a5.713,5.713,0,0,0-1.5.88c-1.4,1.549-2.715,3.182-4.356,5.118-.44-.849-.817-1.453-1.082-2.1-.883-2.174-1.724-4.365-2.58-6.547l-1.3-3.816c-2.421,2.246-3.612,5.014-5.189,7.509l-3.338,3.068a7.764,7.764,0,0,1-.3-1.286c-.193-4.1-.347-8.22-.565-12.317a7.082,7.082,0,0,0-.53-1.668c.167-.835.331-1.668.5-2.5A10.981,10.981,0,0,1,2177.685,854.172Z" transform="translate(961.51 862.466)" fill="#e9e7d6" opacity="0.8"/>
    <path id="Path_203" data-name="Path 203" d="M2427.24,784.388H2424.5c-.3-4.834.066-9.654-.22-14.69-5.285-.387-10.461.034-15.764-.265V766.62h18.72Z" transform="translate(787.647 925.273)" fill="#67b5ff"/>
    <path id="Path_204" data-name="Path 204" d="M1449.753,1239.248q-8.854-.048-17.707-.1c-17.437-.122-34.871-.281-52.308-.353-3.6-.013-7.191.294-10.784.456L1366,1238.7c-.483-.734-.952-1.474-1.445-2.2q-3.27-4.773-6.544-9.562l2.021-.315c.878-4.078,1.787-8.2,2.652-12.322q5.481-26.267,10.927-52.544a56.979,56.979,0,0,0,1.2-7.833,26.424,26.424,0,0,0-.464-6.539,70.664,70.664,0,0,0-1.983-6.836l1.45-1.53c-.109-.424-.215-.846-.326-1.265q-5.213-19.937-10.41-39.883a17.985,17.985,0,0,1-.689-4.945q.4-14.271,1.09-28.537c.138-2.758.339-5.605,1.936-8.064q1.061,1.079,2.1,2.153a54.01,54.01,0,0,0,10.659,10.177,13.541,13.541,0,0,0,3.771,1.856c6.714,2.121,13.457,4.158,20.187,6.234,2.508.774,5.006,1.591,7.472,2.371.345-.475.591-.812.835-1.151,1.612.9,3.182,1.875,4.85,2.652,1.75.825,3.572,1.511,5.4,2.169,1.628.589,2.97,2.079,5.279,1.769l-1.236-1.652c.088-.1.178-.2.265-.3,1.26.371,2.514.761,3.784,1.1.207.056.477-.133.854-.265-.093-.53-.178-1.01-.265-1.514l2.2-.674c-2.19-2.121-5.038-2.4-6.894-4.418l5.205.944.233-.549c-.4-.358-.748-.87-1.217-1.045-1.4-.53-2.837-.947-4.274-1.363-2.652-.769-5.3-1.509-8.021-2.272.9-2.047,3.8-2.36,3.585-5.274-.851.453-1.472.734-2.036,1.1-1.989,1.27-3.956,2.572-5.929,3.863-.217-1.294-1.427-1.217-2.259-1.511-7.809-2.768-15.644-5.462-23.467-8.2-1.326-.461-2.651-.838-3.535-2.142-3.9-5.775-8.109-11.359-11.731-17.3-2.848-4.675-5.436-9.474-9.421-13.319q-.233-1.856-.464-3.712h67.049a17.461,17.461,0,0,1,2.8.422l-1.061.761,5.513,8.928c-.178.419-.6.941-.485,1.238a19.015,19.015,0,0,0,1.352,2.254c3.137,5.356,5.364,11.312,10.2,15.56.021.422-.106.931.088,1.252,5.391,9,10.394,18.248,16.938,26.516,1.257,1.591,2.747,2.98,4.144,4.449a1.574,1.574,0,0,0,2.538,0,28.6,28.6,0,0,0,2.729-3.216c3.182-4.561,4.818-9.776,6.276-15.058a25.41,25.41,0,0,1,.846-2.723,67.784,67.784,0,0,1,.09,16.681c-.774,5.571-1.31,11.2-1.973,16.79-.61,5.16-1.257,10.315-1.88,15.472-.4,3.323-.822,6.629-1.143,9.973a6.09,6.09,0,0,0,.477,1.973c-1.591,7.653-1.74,15.435-2.1,23.2-.78,16.944-1.427,33.9-2.386,50.829-.6,10.755-1.639,21.478-2.506,32.225-.114,1.395-.385,2.774-.607,4.314l2.121.331a.859.859,0,0,0,.072.488l-.716.674ZM1422.3,1055.616c-1.217-2.553-2.386-4.619-3.182-6.812a2.922,2.922,0,0,0-3.182-2.121c-3.519.053-7.04,0-10.559.019a15.475,15.475,0,0,0-1.824.265c1.48,3.036,2.843,5.834,4.208,8.644Zm-18.108-.289a17.3,17.3,0,0,0-.658-2.386c-.559-1.291-1.244-2.527-1.877-3.786-1.326-2.628-1.326-2.628-4.733-2.211,1.026,2.288,1.973,4.534,3.033,6.724,1.1,2.286,1.159,2.267,4.229,1.66Z" transform="translate(1559.603 734.641)" fill="#fdfdfd"/>
    <path id="Path_205" data-name="Path 205" d="M1657.823,997.891l6.719-2.121,10.561,19.686q-5.25-.4-10.5-.8c-.766-.061-1.527-.172-2.355-.265-.265,1.692.928,1.93,1.84,2.259,1.485.53,3.044.875,4.531,1.408a22.837,22.837,0,0,1,3.354,1.541,7.054,7.054,0,0,1,1.344,1.262c-.8,1.957-3.712,1.371-3.906,4.062l7.085-1.456-2.652,10.341-7.6,4.06-6.181-6.1c-.9-.883-1.856-1.652-3.246-1.283a61.433,61.433,0,0,1-2.771-6.218,64.956,64.956,0,0,1-1.474-6.828c-2.652,1.026-.719,3.558-2.121,4.906-1.127.337-1.957-.385-2.636-1.164-1.944-2.227-3.81-4.508-5.706-6.791-.424-.857-.8-1.745-1.281-2.556-1.265-2.087-2.585-4.136-3.993-6.364l7.955-3.081c1.777.546,3.373-.146,4.99-.711,2.073-.721,4.179-1.358,6.21-2.185A9.274,9.274,0,0,0,1657.823,997.891Z" transform="translate(1354.715 756.884)" fill="#fdfdfd"/>
    <path id="Path_206" data-name="Path 206" d="M1650.9,1064.714c1.9,2.27,3.763,4.563,5.706,6.791.679.78,1.509,1.5,2.636,1.164,1.411-1.347-.53-3.879,2.121-4.905a64.579,64.579,0,0,0,1.474,6.828,60.8,60.8,0,0,0,2.771,6.218l-5.224,2.493c-4.831-4.243-7.059-10.2-10.2-15.56a18.586,18.586,0,0,1-1.352-2.254c-.119-.3.308-.819.483-1.238a2.787,2.787,0,0,0,.745.578A2.643,2.643,0,0,0,1650.9,1064.714Z" transform="translate(1345.91 706.563)" fill="#f49b87"/>
    <path id="Path_207" data-name="Path 207" d="M1753.986,1153.007l-.8-1.241,5.568-3.086q-1.082,3.4-2.166,6.809Z" transform="translate(1269.209 644.52)" fill="#fdfdfd"/>
    <path id="Path_208" data-name="Path 208" d="M1754.781,1141.686l-5.568,3.087-1.453-1.543,7.6-4.06Z" transform="translate(1273.199 651.508)" fill="#41525d"/>
    <path id="Path_209" data-name="Path 209" d="M1756.123,1165l2.62,2.482c-.228,1.779-.453,3.556-.729,5.7C1756.433,1171.038,1755.982,1168.813,1756.123,1165Z" transform="translate(1267.072 632.528)" fill="#0488c2"/>
    <path id="Path_210" data-name="Path 210" d="M1409.328,645.55c5.187,1.193,10.3,2.575,14.724,5.741.634.453,1.281.888,1.925,1.326,1.7,2.339,3.861,4.473,5.038,7.053a195.99,195.99,0,0,0,9.413,18.06,12.344,12.344,0,0,1,.7,1.856c-4.147,0-8.021-.088-11.89.037a3.93,3.93,0,0,1-3.927-1.981c-1.093-1.742-2.461-3.312-4.02-5.367-.53,2.781-.963,4.988-1.381,7.159h-50.757c-.711-1.575-1.363-3.015-2.151-4.752-1.108,1.784-2.071,3.338-2.964,4.773H1348.23c2.142-3.946,4.274-7.9,6.435-11.834,1.018-1.856,2.076-3.683,3.14-5.51,1.018-1.753,2.121-3.463,3.094-5.234a14.764,14.764,0,0,1,9.18-7.424c3.291-.941,6.5-2.143,9.755-3.227a44.838,44.838,0,0,0,6.422,12.383,26.158,26.158,0,0,0,4.091,4.465c2.9,2.477,5.833,2.625,8.973.53a15.339,15.339,0,0,0,3.49-3.182A34.338,34.338,0,0,0,1409.328,645.55Z" transform="translate(1566.79 1014.24)" fill="#274e75" opacity="0.8"/>
    <path id="Path_211" data-name="Path 211" d="M1347.96,699.02h15.809c.894-1.443,1.856-3,2.964-4.773.8,1.737,1.44,3.182,2.15,4.752h50.744c.419-2.166.843-4.372,1.381-7.159,1.559,2.055,2.917,3.625,4.02,5.367a3.931,3.931,0,0,0,3.927,1.981c3.869-.125,7.743-.037,11.89-.037a14.134,14.134,0,0,0-.7-1.856,195.981,195.981,0,0,1-9.413-18.06c-1.164-2.58-3.32-4.715-5.038-7.053h15.358c.061,1.127.111,2.14.17,3.153.167,2.861-.565,5.834.97,8.538a2.373,2.373,0,0,1,.085,1.042c.18,6.669.332,13.34.552,20.006.069,2.007.355,4,.5,6.009.082,1.092-.286,1.912-1.535,2.031-.029-.607-.066-1.214-.082-1.822-.04-1.437-.8-1.482-1.965-1.082-.087,1.029-.17,1.967-.249,2.917l-88.063-.026v-2.97h-2.278c-.082.925-.151,1.692-.22,2.458-1.3-.193-1.061-1.217-1.061-2.052C1347.9,706.6,1347.938,702.806,1347.96,699.02Z" transform="translate(1567.06 994.671)" fill="#e8ecfe" opacity="0.8"/>
    <path id="Path_212" data-name="Path 212" d="M1496.914,552.68a34.06,34.06,0,0,1-6.518,14.849,15.341,15.341,0,0,1-3.49,3.182c-3.142,2.105-6.078,1.957-8.973-.53a26.153,26.153,0,0,1-4.091-4.465,44.839,44.839,0,0,1-6.422-12.383c1.769-.957,3.508-1.978,5.322-2.845,1.371-.655,2.336-1.461,2.429-3.108.061-1.042.427-2.068.477-3.11a4.168,4.168,0,0,0-.4-2.169,29.355,29.355,0,0,1-2.991-7.557c-.629-2.54-1.655-4.98-2.355-7.5-.265-1-.833-2.27.62-3.007.247,1.384.438,2.784.761,4.152a17.23,17.23,0,0,0,1.079,2.463c.6-3.482,1.1-6.343,1.652-9.564,1.5-.445,3.142-1.061,4.839-1.408a27.725,27.725,0,0,1,11.306.156,2.482,2.482,0,0,1,2.2,2.254c.329,2.259.628,4.524.96,6.913a3.448,3.448,0,0,0,1.713-2.615c.17-.764.345-1.525.53-2.286,1.1.361,1.212,1.175.92,2.121-.676,2.172-1.387,4.335-2.071,6.5-.265.835-.546,1.671-.732,2.524a18.711,18.711,0,0,1-3.818,8.01,7.788,7.788,0,0,0-1.57.925c-1.5,1.419-3.3,1.713-5.274,1.83a9.8,9.8,0,0,1-5.892-1.726l-.217-.1.2.122a5.5,5.5,0,0,0,6.549,4.028,10.425,10.425,0,0,0,6.123-4.065c.5,4.815.506,4.8,4.969,7.019a23.6,23.6,0,0,1,2.156,1.392Z" transform="translate(1479.204 1107.11)" fill="#f49b87" opacity="0.8"/>
    <path id="Path_213" data-name="Path 213" d="M1352,817.188c.069-.766.138-1.533.22-2.458h2.278v10.394c3.76.361,7.361,0,11.121.265.045.753.085,1.384.133,2.18h-13.6C1352.1,824.008,1352.045,820.6,1352,817.188Z" transform="translate(1564.019 889.92)" fill="#67b5ff" opacity="0.8"/>
    <path id="Path_214" data-name="Path 214" d="M1661.376,817.316c.08-.941.162-1.88.249-2.917,1.161-.4,1.925-.355,1.965,1.082.016.607.053,1.214.082,1.822v2.652c-.061,2.339-.119,4.677-.188,7.332-3.256,0-6.3.045-9.339-.021-1.456-.029-2.917-.265-4.365-.414.088-.586.172-1.172.294-2.007h11.3Z" transform="translate(1345.199 890.322)" fill="#67b5ff" opacity="0.8"/>
    <path id="Path_215" data-name="Path 215" d="M1365.8,554.381c.43,1.389.032,1.944-1.159,1.938h-10.012c-.077.9-.191,1.652-.2,2.4-.024,2.386.037,4.757-.058,7.13-.016.453-.591.886-.91,1.326-.384-.371-1.092-.737-1.1-1.116-.082-3.845-.05-7.69-.05-11.691Z" transform="translate(1563.794 1081.243)" fill="#67b5ff"/>
    <path id="Path_216" data-name="Path 216" d="M1506.83,849.182V847h10.72v2.172Z" transform="translate(1450.244 866.206)" fill="#67b5ff" opacity="0.8"/>
    <path id="Path_217" data-name="Path 217" d="M2012.013,766.781c.419,2.652.326,2.835-1.93,2.858-3.712.037-7.4,0-11.108,0h-2.917v14.817h-2.949V766.77Z" transform="translate(1092.907 925.163)" fill="#67b5ff"/>
    <path id="Path_218" data-name="Path 218" d="M2193.94,831.15a15.208,15.208,0,0,0,7.122-2.386,10.109,10.109,0,0,1,1.9-.843l.019.019c-.387,1.856-2.068,2.527-3.352,3.463-1.731,1.262-3.67,2.238-5.518,3.338Z" transform="translate(945.329 880.227)" fill="#f45441" opacity="0.8"/>
    <path id="Path_219" data-name="Path 219" d="M1867.412,1587.9l-.1.9-2.018,1.734c-6.767-.212-13.523-.456-20.3-.623-8.8-.217-17.593-.374-26.389-.53-.968-.018-1.938.048-2.9.077l-.437-1.061c.042-.172.082-.347.122-.53l2.864-.188c.8-3.02,1.665-6.056,2.421-9.119,2.829-11.463,5.648-22.939,7.143-34.664.756-5.934.97-11.932,1.432-17.912a102.191,102.191,0,0,1,4.89-24.021c1.488-.215,2.214.925,2.991,1.811a17.276,17.276,0,0,0,8,4.773,33.46,33.46,0,0,0,3.816.8c1.2,3.67,2.251,7.4,3.622,11,3.5,9.2,5.157,18.84,6.894,28.452,2.227,12.309,4.325,24.639,6.5,36.956C1866.12,1586.641,1866.02,1587.8,1867.412,1587.9Z" transform="translate(1223.598 384.93)" fill="#fdfdfd"/>
    <path id="Path_220" data-name="Path 220" d="M1901.239,1455.434c-1.273-.265-2.585-.408-3.816-.8a17.17,17.17,0,0,1-8-4.773c-.777-.886-1.5-2.026-2.991-1.811a168.863,168.863,0,0,1,7.051-19.484,9.325,9.325,0,0,1,.631,1.214q3.534,12.431,7.045,24.867A4.253,4.253,0,0,1,1901.239,1455.434Z" transform="translate(1171.299 438.846)" fill="#e0e9f7"/>
    <path id="Path_221" data-name="Path 221" d="M1790.7,1826c-.04.175-.079.35-.122.53h-8.825a.859.859,0,0,1-.072-.488Z" transform="translate(1248.277 146.799)" fill="#18488d"/>
    <path id="Path_222" data-name="Path 222" d="M1406.53,909.464V906.68h64.294a9.468,9.468,0,0,1,.228,1.326,9.124,9.124,0,0,1-.132,1.26C1468.968,909.8,1411.1,910,1406.53,909.464Z" transform="translate(1523.948 822.351)" fill="#a0d9fe" opacity="0.8"/>
    <path id="Path_223" data-name="Path 223" d="M1486,943.963v2.8h-45.825c-.058-.886-.114-1.718-.164-2.508C1442.068,943.647,1480.577,943.414,1486,943.963Z" transform="translate(1499.346 795.182)" fill="#a0d9fe" opacity="0.8"/>
    <path id="Path_224" data-name="Path 224" d="M1341.521,995.107q.231,1.856.464,3.712c-.647-.22-1.283-.483-1.944-.652-1.9-.485-3.81-.933-5.717-1.4-.628-.461-1.286-.888-1.877-1.392-.506-.432-.936-.955-1.4-1.435q.087-1.225.172-2.45a7.921,7.921,0,0,0,5.234-4.335c.583-1.061,1.122-2.121,1.681-3.2a28.452,28.452,0,0,0,.695,3.556C1339.657,990.083,1340.617,992.588,1341.521,995.107Z" transform="translate(1579.414 765.563)" fill="#161d4f"/>
    <path id="Path_225" data-name="Path 225" d="M1677.81,1000.448a8.272,8.272,0,0,1-1.856,1.591c-2.031.827-4.136,1.464-6.21,2.185-1.618.565-3.214,1.257-4.99.711l-.724-.636c1.254-1.967,3.418-2.336,5.385-3.049,1.061-.387,2.151-.727,3.214-1.127,1.686-.634,3.368-1.233,5.2-.61Z" transform="translate(1334.727 754.328)" fill="#161d4f"/>
    <path id="Path_226" data-name="Path 226" d="M1639.016,1018.24l.724.636-7.955,3.081c1.408,2.24,2.728,4.29,3.993,6.364.493.811.856,1.7,1.281,2.556-.279.045-.591.191-.827.114a2.792,2.792,0,0,1-.745-.578L1630,1021.5l1.061-.761Z" transform="translate(1359.734 740.373)" fill="#41525d"/>
    <path id="Path_227" data-name="Path 227" d="M1663.9,554.4v11.314c0,1.222-.615,1.53-2.018,1.092V556.484c-1.408-.053-2.516-.119-3.625-.13-2.2-.021-4.4,0-6.6,0-1.289,0-1.8-.53-1.185-1.944Z" transform="translate(1344.882 1081.22)" fill="#67b5ff" opacity="0.8"/>
    <path id="Path_228" data-name="Path 228" d="M1504,611.149a9.82,9.82,0,0,0,5.892,1.726c1.973-.117,3.776-.411,5.274-1.83a7.869,7.869,0,0,1,1.57-.925c-.029.337-.056.673-.082,1.01a10.426,10.426,0,0,1-6.123,4.065A5.5,5.5,0,0,1,1504,611.149Z" transform="translate(1452.324 1040.275)" fill="#f45441" opacity="0.8"/>
    <path id="Path_229" data-name="Path 229" d="M1278.177,1529.023l-10.9.077c-.469-.517-.968-1.008-1.4-1.551-1.416-1.771-2.805-3.561-4.208-5.343-.037-12.813.026-25.625-.151-38.435-.1-7.446.994-14.793,1.326-22.194.326-7.106,2.771-13.616,4.829-20.261q2.819-9.1,5.645-18.2c.223-.719.453-1.432.8-2.548.53.952.915,1.519,1.2,2.121,3.977,8.66,7.867,17.365,11.975,25.962a9.855,9.855,0,0,1,.44,7.878,97.017,97.017,0,0,0-3.248,10.9c-.8,3.871-.944,7.878-1.572,11.794-1.819,11.328-3.741,22.639-5.619,33.957-.172,1.031-.323,2.066-.514,3.275l2.917.419c-.027.284-.05.57-.074.856a8.439,8.439,0,0,0-2.074,6.083C1277.583,1525.555,1277.957,1527.279,1278.177,1529.023Z" transform="translate(1630.518 444.725)" fill="#fdfdfd"/>
    <path id="Path_230" data-name="Path 230" d="M1343.4,1032.34c1.907.464,3.816.912,5.717,1.4.66.17,1.3.432,1.944.652,3.977,3.845,6.573,8.644,9.421,13.319,3.622,5.945,7.827,11.529,11.731,17.3.88,1.3,2.219,1.681,3.535,2.142,7.822,2.739,15.645,5.433,23.467,8.2.833.294,2.042.217,2.259,1.509q-.894,2.864-1.784,5.722c-.244.339-.491.676-.835,1.151-2.466-.8-4.964-1.591-7.472-2.37-6.73-2.076-13.473-4.107-20.187-6.234a13.538,13.538,0,0,1-3.771-1.856,54,54,0,0,1-10.659-10.177c.194-2.076.53-4.15.53-6.229s.416-4.243-.517-6.271a14.1,14.1,0,0,0-.777,2.917c-.453,2.477-.894,4.953-1.342,7.424-1.591,2.458-1.8,5.3-1.936,8.064-.478,9.509-.812,19.023-1.09,28.537a17.652,17.652,0,0,0,.689,4.945q5.154,19.956,10.41,39.883c.111.419.217.841.326,1.265l-1.45,1.53-3.018.512c-2.752-12.3-5.478-24.488-8.22-36.68-.321-4.394-.8-8.78-.936-13.179-.3-10.484-.472-20.974-.628-31.464a100.493,100.493,0,0,0-3.855-26.331Q1344.185,1035.193,1343.4,1032.34Z" transform="translate(1570.339 730.011)" fill="#18488d" stroke="#18488d" stroke-width="1"/>
    <path id="Path_231" data-name="Path 231" d="M1300,1053.85a100.493,100.493,0,0,1,3.855,26.331c.156,10.49.326,20.979.628,31.464.127,4.4.615,8.785.936,13.178a71.135,71.135,0,0,1-23.22,3.779c.077-.687.151-1.376.225-2.063.578-2.848,2.339-5.091,3.808-7.48a14.386,14.386,0,0,0,2.286.472c.559.027,1.435-.064,1.652-.416a32.7,32.7,0,0,0,3.41-6.422c.3-.888-.928-2.286-1.456-3.447a1.952,1.952,0,0,1-.077-.249c2.882-5.1,5.767-10.206,8.721-15.432-2.461-1.435-4.746-2.734-6.995-4.089-2.63-1.591-5.232-3.211-7.844-4.818a64.837,64.837,0,0,0-.841-18.906c-.684-3.977-1.509-7.92-2.27-11.879.53.316,1.061.594,1.548.949a12.569,12.569,0,0,0,10.959,2.326C1297.415,1056.629,1298.571,1055.123,1300,1053.85Z" transform="translate(1615.311 714.205)" fill="#f93701"/>
    <path id="Path_232" data-name="Path 232" d="M1329.87,1784.575c.024-.286.048-.573.074-.856l7.382-.019q3.275,4.773,6.544,9.562c.493.724.963,1.464,1.445,2.2-4.176,1.326-5.664.883-8.09-2.386-1.665-2.246-3.256-4.551-5-6.73A11.59,11.59,0,0,0,1329.87,1784.575Z" transform="translate(1580.281 177.882)" fill="#f49b87"/>
    <path id="Path_233" data-name="Path 233" d="M1246.815,1803.87c1.4,1.782,2.792,3.572,4.208,5.343.435.53.933,1.034,1.4,1.551q.623,1.032,1.252,2.058c-4.1,2.031-6.777,1.477-9.32-2.121-1.156-1.636-2.047-3.463-3.057-5.2C1242.87,1804.037,1244.973,1804.39,1246.815,1803.87Z" transform="translate(1645.366 163.061)" fill="#f49b87"/>
    <path id="Path_234" data-name="Path 234" d="M1973.8,383.72l.758.072c1.994,5.348,9.31,9.8,14.449,8.737.546-1.326-.016-2.53-.53-3.736-.591-1.366-1.172-2.734-1.755-4.1l6.589,4.357c2.885,3.508,3.5,7.865,4.29,12.089.289,1.543-.345,3.261-.56,4.9-3.089,6.894-3.712,14.173-3.219,21.611l-20.486.019c-.424-1.875-.774-3.771-1.294-5.616a13.188,13.188,0,0,1-.488-5.415c.422-3.206.615-6.443.976-9.657.1-.9.061-1.628-.931-1.838-2.819-.6-5.648-1.135-8.485-1.7-.695-.472-1.519-.7-1.591-1.856-.308-4.123.021-8.1,2.071-11.8,1.535-2.766,3.657-4.688,6.908-5.192A28.286,28.286,0,0,0,1973.8,383.72Z" transform="translate(1116.19 1206.643)" fill="#fc2142" opacity="0.53"/>
    <path id="Path_235" data-name="Path 235" d="M1967.83,458.11c2.824.562,5.653,1.1,8.485,1.7.992.209,1.031.939.931,1.838-.361,3.214-.554,6.451-.976,9.657a13.188,13.188,0,0,0,.488,5.415c.53,1.856.87,3.741,1.294,5.616h-8.538c-.36-2.121-.835-4.166-1.021-6.234s-.1-4.243-.125-6.364Z" transform="translate(1111.483 1151.978)" fill="#f49b87" opacity="0.53"/>
    <path id="Path_236" data-name="Path 236" d="M2083.16,489.5c-.5-7.425.13-14.708,3.219-21.611.549,2.888,1.087,5.778,1.655,8.663.13.668.366,1.326.552,1.973.422,2.333.88,4.659,1.246,7,.186,1.2.2,2.429.315,3.977Z" transform="translate(1026.849 1144.791)" fill="#f49b87" opacity="0.53"/>
    <path id="Path_237" data-name="Path 237" d="M2139.007,571.691h-10.174c-.414-.965-.045-1.374.71-1.405,1.411-.053,2.824-.029,4.243-.034h3.24c.027-2.036,0-3.853.09-5.661.042-.857-.456-2.257,1.024-2.222,1.275.032.835,1.326.854,2.121C2139.041,566.847,2139.007,569.2,2139.007,571.691Z" transform="translate(993.299 1075.365)" fill="#67b5ff"/>
    <path id="Path_238" data-name="Path 238" d="M1907.417,568.845h8.273c.4,1.037.072,1.472-.7,1.48-2.9.029-5.791,0-8.936,0a56.48,56.48,0,0,1-.088-8.769c0-.284.62-.546,1.461-1.236Z" transform="translate(1157.04 1076.87)" fill="#67b5ff"/>
    <path id="Path_239" data-name="Path 239" d="M2027.5,587.644a39.7,39.7,0,0,1-7.716.1c-.265-.016-.48-.668-1.013-1.464,2.811,0,5.139-.035,7.464.042C2026.537,586.329,2026.82,586.912,2027.5,587.644Z" transform="translate(1074.05 1057.8)" fill="#67b5ff"/>
    <path id="Path_240" data-name="Path 240" d="M1726.446,1828h8.824l.438,1.061c.469,3.216,1.061,6.422,1.371,9.657.2,2.068-.459,2.917-2.471,2.935-7.571.037-15.146,0-22.711-.292-1.843-.069-3.649-1.124-5.47-1.726q-.016-1.275-.027-2.556c1.371-.53,2.715-1.169,4.126-1.57,2.617-.74,5.274-1.326,7.912-2a9.359,9.359,0,0,0,5.364-3.078,15.366,15.366,0,0,1,1.928-1.747Z" transform="translate(1303.592 145.329)" fill="#161d4f"/>
    <path id="Path_241" data-name="Path 241" d="M1324.12,1787a11.574,11.574,0,0,1,2.355,1.763c1.745,2.18,3.336,4.484,5,6.73,2.426,3.275,3.914,3.712,8.09,2.386l2.954.546a13.051,13.051,0,0,1,2.514,1.4,5.041,5.041,0,0,1,1.814,2.424c.49,2.742.424,4.457-3.086,4.813a40.986,40.986,0,0,1-6.576.188,7.208,7.208,0,0,1-5.468-3.3,14.008,14.008,0,0,0-5.481-4.967v8.093c-2.3.159-2.3.149-2.538-1.522-.337-2.423-.689-4.847-1.034-7.271a46.95,46.95,0,0,1-.618-5.205A8.489,8.489,0,0,1,1324.12,1787Z" transform="translate(1586.031 175.458)" fill="#161d4f"/>
    <path id="Path_242" data-name="Path 242" d="M1723.911,1830.227a15.753,15.753,0,0,0-1.928,1.747,9.428,9.428,0,0,1-5.364,3.078c-2.652.666-5.3,1.257-7.912,2-1.411.4-2.755,1.039-4.126,1.57a9.481,9.481,0,0,1-.6-2.166c-.082-2.121-.032-4.227-.035-6.343Z" transform="translate(1305.406 143.779)" fill="#ececec"/>
    <path id="Path_243" data-name="Path 243" d="M2023.1,333.92c.583,1.368,1.164,2.736,1.755,4.1.53,1.206,1.082,2.4.53,3.736-5.139,1.061-12.463-3.389-14.449-8.737l2.9-1.238c0-1.294.024-2.678,0-4.062-.035-1.556-.6-3.092.088-4.677.2-.456-.207-1.164-.31-1.761a19.414,19.414,0,0,1-.347-2.333c-.043-.8.04-1.663,1.031-1.888.944-.217,1.458.379,1.827,1.156.149.313.348.6.6,1.039a21.267,21.267,0,0,0,10.357-3.4c.727-.443,1.5-.819,2.246-1.225-.042,3.824-1.188,7.425-2.3,11.012-.491.814-.978,1.631-1.472,2.442a5.876,5.876,0,0,1-4.272,3.081l-3.691-.822c-.175-.172-.35-.345-.53-.514l-.53-.53-.223-.114.2.133.53.53.53.53a3.951,3.951,0,0,0,3.508,2.015Z" transform="translate(1079.804 1257.413)" fill="#f49b87" opacity="0.53"/>
    <path id="Path_244" data-name="Path 244" d="M2051.188,364.438l-2.028-1.522c.074-.411.148-.822.22-1.233a5.877,5.877,0,0,0,4.272-3.081c.493-.811.981-1.628,1.471-2.442.334,1.326.719,2.652.992,4,.583,2.872,1.111,5.754,1.663,8.631Z" transform="translate(1051.719 1226.895)" fill="#2a383e" opacity="0.53"/>
    <path id="Path_245" data-name="Path 245" d="M2136.754,368.148h-5.568a7.485,7.485,0,0,1-1.83-.122c-.342-.09-.594-.53-.886-.8.337-.3.668-.87,1.01-.878,2.975-.069,5.953-.04,9.14-.04V376c-1.294.339-1.591-.334-1.625-1.222-.045-1.326,0-2.636-.037-3.954C2136.945,369.986,2136.831,369.142,2136.754,368.148Z" transform="translate(993.439 1219.439)" fill="#67b5ff"/>
    <path id="Path_246" data-name="Path 246" d="M1906.68,366.77h9.583c.565.989.2,1.517-.666,1.6-1.22.119-2.455.1-3.686.111-1.132.016-2.267,0-3.333,0-1.326,2.673.546,5.568-1.2,7.955-.048.064-.323-.04-.695-.093Z" transform="translate(1156.419 1219.098)" fill="#67b5ff"/>
    <path id="Path_247" data-name="Path 247" d="M834.907,1264.245c-3.447,3.057-5.921,6.894-8.536,10.606-1.352,1.925-2.5,4-3.739,6h-7.186c.127-2.1.286-4.192.376-6.29a64.785,64.785,0,0,1,2.1-14.271c1.193-4.4,2.676-8.71,3.866-13.107.581-2.15,1.456-4.362.438-6.653.021-1.66-.029-3.325.08-4.98q.49-7.6,1.1-15.2c.141-1.742.44-3.474.727-5.2.674-4.054,2.562-7.618,4.577-11.137.825-1.1,1.66-2.182,2.471-3.285,2.994-4.068,3.728-8.647,3.065-13.55-.281-2.087-.655-4.176-.737-6.276-.247-6.245,1.09-12.054,5.234-17.066l-1.164-1.286a30,30,0,0,0-1.944,2.437,25.233,25.233,0,0,0-3.755,12.24,43.621,43.621,0,0,0,.74,10.243,14.831,14.831,0,0,1-2.278,11.362c-.843,1.233-1.625,2.506-2.434,3.76-.506.716-1.061,1.4-1.511,2.15-3.529,5.833-4.556,12.28-4.773,18.964-.143,4.192-.559,8.374-.883,13.006-3.816-2.028-7.671-2.789-10.805-5.152a2.769,2.769,0,0,1-.88-1.151,9.832,9.832,0,0,1-.2-6.976c1.265-3.516,2.744-6.958,4.131-10.431a22.789,22.789,0,0,0,2.5-10.121,10.441,10.441,0,0,0-5.457-9.848,99.878,99.878,0,0,0-9.811-4.452c-.716-.316-1.461-.56-2.418-.923a7.384,7.384,0,0,1,4.176-4.508c2.029-1.026,4.2-1.771,6.327-2.6,3.113-1.217,6.255-2.386,8.65-4.86,3.919-2.917,5.216-7.159,5.727-11.723a66.085,66.085,0,0,0,.1-6.608,39.346,39.346,0,0,1,.109-4.227c.424-3.508,2-4.749,5.5-4.558.96.05,1.925,0,2.89,0a15.137,15.137,0,0,0,8.061-.883,11.594,11.594,0,0,0,6.759-6.984c1.222-3.535,2.066-7.3,4.773-10.158.111-.117.09-.35.191-.485,1.79-2.386,3.521-3.182,5.269-2.294,3.911,1.991,5.8,5,4.752,7.3-1.2,2.636-2.326,5.319-3.712,7.851-1.578,2.853-3.447,5.542-5.141,8.337a28.43,28.43,0,0,0-4.367,14.788,22.42,22.42,0,0,0,2.964,10.323,70.487,70.487,0,0,1,3.413,7.732,13.118,13.118,0,0,1-2.089,13.221c-2.018,2.667-4.243,5.176-6.316,7.806a52.77,52.77,0,0,0-6.894,11.561,15.755,15.755,0,0,0,.53,14.054c1.708,3.381,3.805,6.563,5.606,9.9a58.336,58.336,0,0,1,2.715,6c1.161,2.885.178,5.383-1.761,7.541a21.73,21.73,0,0,1-3.023,2.556C840.059,1258.989,837.052,1261.147,834.907,1264.245Z" transform="translate(1971.267 660.144)" fill="#fdfdfd"/>
    <path id="Path_248" data-name="Path 248" d="M819.934,1421.36c-1.387,3.474-2.866,6.915-4.131,10.431a9.832,9.832,0,0,0,.2,6.976,2.768,2.768,0,0,0,.88,1.151c3.134,2.363,6.99,3.124,10.805,5.152.323-4.632.74-8.814.883-13.006.225-6.685,1.252-13.133,4.773-18.964.453-.748,1-1.435,1.511-2.15l.8,1.421c-2.015,3.508-3.9,7.072-4.577,11.137-.286,1.726-.586,3.447-.727,5.2q-.618,7.592-1.1,15.2c-.109,1.655-.058,3.32-.08,4.98-4.471,1.456-8.957,2.869-13.4,4.4a13.525,13.525,0,0,0-2.609,1.633c-.8-.8-1.891-1.461-2.32-2.424a32.77,32.77,0,0,1-2.763-7.652c-1.135-6.727-.843-13.539-.456-20.33,2.331-.663,4.651-1.371,7-1.978C816.394,1422.068,818.176,1421.742,819.934,1421.36Z" transform="translate(1964.3 451.794)" fill="#4ccfb1" opacity="0.56"/>
    <path id="Path_249" data-name="Path 249" d="M760.66,1395.812c-.387,6.791-.679,13.6.456,20.33a32.554,32.554,0,0,0,2.763,7.652c.43.963,1.527,1.625,2.323,2.424,2.917,2.137,3.635,5.261,3.871,8.6a80.737,80.737,0,0,1-.968,18.163c-.387,2.5-.761,5-1.143,7.5l-1.5.04c.626-4.365,1.443-8.716,1.824-13.1.4-4.646.915-9.32.162-14-.392-2.426-1.061-4.54-3.323-6.024a10.408,10.408,0,0,1-2.917-3.37,15.468,15.468,0,0,1-2.58-7.067q-.419-8.456-.838-16.915c.194-2.546.337-5.1.589-7.639.53-5.422-1.994-9.506-5.733-12.993a32.072,32.072,0,0,0-10.312-6.154c.111-.347.231-.716.432-1.35,6.939,2.638,12.858,6.287,16.042,13.258a15.4,15.4,0,0,1,.978,8.562C760.711,1394.412,760.705,1395.114,760.66,1395.812Z" transform="translate(2011.287 480.482)" fill="#e4eaf7"/>
    <path id="Path_250" data-name="Path 250" d="M1241.239,1184.118c-2.27-1.358-4.635-2.583-6.788-4.1-2.872-2.034-5.6-4.277-8.337-6.486a5.2,5.2,0,0,1-.9-1.519c2.58-4.566,5.16-9.132,7.817-13.828,2.1,1.2,3.94,2.23,5.751,3.3.353.207.841.576.856.888.048,1.013.8,1.289,1.466,1.681,1.981,1.148,3.956,2.3,5.945,3.447a2.959,2.959,0,0,0,1.424.62c3.23-.236,5.038,2.259,7.751,3.505l-7.549,13.083Z" transform="translate(1657.19 637.539)" fill="#e2d1d1"/>
    <path id="Path_251" data-name="Path 251" d="M1211.045,1263.774c-2.14,3.739-4.282,7.475-6.61,11.535l-22.335-12.884c1.875-3.694,3.625-7.133,5.375-10.575a17.148,17.148,0,0,1,2.622,1.01c5.107,2.962,10.179,5.979,15.411,9.063l1.352-2.2Z" transform="translate(1688.868 568.707)" fill="#e2d1d1"/>
    <path id="Path_252" data-name="Path 252" d="M1246.1,1176.376l7.549-13.083c-2.7-1.246-4.521-3.741-7.751-3.505-.456.035-.971-.363-1.424-.62-1.989-1.135-3.978-2.291-5.945-3.447-.676-.392-1.419-.668-1.466-1.681-.016-.313-.5-.681-.856-.888-1.811-1.074-3.649-2.1-5.751-3.3-2.652,4.7-5.237,9.262-7.817,13.828q-.467-.53-.928-1.04c.668-1.326,1.35-2.628,2-3.956.833-1.71,1.636-3.447,2.453-5.155.61-.955,1.23-1.9,1.822-2.866.724-1.18,1.421-2.386,2.283-3.818,2.5,1.392,4.773,2.673,7.061,3.932,1.374.753,2.768,1.469,4.155,2.2,2.612,1.609,5.213,3.24,7.843,4.821,2.249,1.355,4.534,2.652,6.995,4.089l-8.721,15.43Z" transform="translate(1659.761 645.872)" fill="#41525d"/>
    <path id="Path_253" data-name="Path 253" d="M1285.612,1256.635l1.5.944a1.871,1.871,0,0,0,.077.265c.53,1.167,1.753,2.564,1.456,3.447a32.842,32.842,0,0,1-3.41,6.422c-.217.353-1.092.443-1.652.416a14.4,14.4,0,0,1-2.286-.472l-1.631-.78-4.184-4.049,2.7-6.77Z" transform="translate(1620.249 565.613)" fill="#f49b87"/>
    <path id="Path_254" data-name="Path 254" d="M1222.887,1157.714c-.817,1.718-1.62,3.447-2.453,5.155-.647,1.326-1.326,2.652-2,3.956-1.278-.358-1.3-1.469-1.061-2.341,1.122-4.007,2.386-7.973,3.588-11.953l.53.045Z" transform="translate(1663.034 641.691)" fill="#f0eeff"/>
    <path id="Path_255" data-name="Path 255" d="M755.973,1541.81a15.469,15.469,0,0,0,2.58,7.067,10.108,10.108,0,0,0,2.917,3.37c2.251,1.485,2.93,3.6,3.322,6.024.753,4.68.241,9.355-.162,14-.382,4.386-1.2,8.75-1.824,13.1l-.666.207-4.823-.233a22.094,22.094,0,0,0-2.166-10.116,29.742,29.742,0,0,0-6-7.862l1.445-.149,4.566,4.168a27.742,27.742,0,0,0-2.752-8.695,9.984,9.984,0,0,0-5.547-4.964,25.988,25.988,0,0,1-5.42-2.652c-3.548-2.339-3.951-4.7-1.737-8.485a29.813,29.813,0,0,0,3.041-.658c3.4-1.106,6.777-2.3,10.179-3.41C753.918,1542.208,754.958,1542.046,755.973,1541.81Z" transform="translate(2014.958 355.633)" fill="#41b3ba" opacity="0.56"/>
    <path id="Path_256" data-name="Path 256" d="M831.321,1594.327c.382-2.5.756-5,1.143-7.5a80.749,80.749,0,0,0,.968-18.163c-.236-3.341-.96-6.465-3.871-8.6a13.434,13.434,0,0,1,2.607-1.633c4.444-1.527,8.931-2.941,13.4-4.4,1.018,2.291.143,4.508-.437,6.653-1.191,4.4-2.673,8.711-3.866,13.107a64.771,64.771,0,0,0-2.1,14.271c-.09,2.1-.249,4.192-.377,6.29Z" transform="translate(1947.929 346.653)" fill="#41b3ba" opacity="0.56"/>
    <path id="Path_257" data-name="Path 257" d="M667.014,1511.8a29.7,29.7,0,0,1,6,7.862,21.957,21.957,0,0,1,2.166,10.116h-9.49c-1.941-4.8-3.877-9.625-6.963-13.836a23.692,23.692,0,0,0-3.779-4.02,11.9,11.9,0,0,0-3.041-1.374,7.364,7.364,0,0,0-1.655-1.44c-2.978-1.3-6.075-2.36-8.989-3.794a19.888,19.888,0,0,1-4.9-3.474,5.9,5.9,0,0,1-1.644-5.807c.445-1.97.8-3.977,1.384-5.9a8.915,8.915,0,0,0-2.333-9.434,54.9,54.9,0,0,1-5.221-6.271,14.259,14.259,0,0,1-1.843-4.322c-.483-1.7.292-2.821,1.938-3.479,2.312-.923,4.534-.194,6.709.43a13.065,13.065,0,0,1,6.234,3.805c.88.979,1.9,1.83,2.853,2.739,3.588,4.02,8.27,5.754,13.452,6.38,2.344.284,4.707.4,7.112.6.366,1.612-.867,2.41-1.676,3.354-1.655,1.933-3.41,3.778-5.078,5.7a5.838,5.838,0,0,0-.679,1.4c-2.214,3.789-1.811,6.146,1.737,8.485a25.988,25.988,0,0,0,5.42,2.652,9.975,9.975,0,0,1,5.547,4.964,27.513,27.513,0,0,1,2.752,8.695l-4.566-4.168c-1.291-1.26-2.514-2.6-3.887-3.763a44.683,44.683,0,0,1-12.513-16.337c-1.206-2.779-2.3-5.611-3.447-8.416-2.612-5-7.4-6.629-12.367-7.955-.366-.1-.88.376-1.326.586v.61c4.632,1.254,8.944,3.057,12.144,6.751.339.8.684,1.591,1.018,2.386,1.511,3.614,2.723,7.393,4.593,10.811A43.641,43.641,0,0,0,667.014,1511.8Z" transform="translate(2097.097 411.201)" fill="#fdfdfd"/>
    <path id="Path_258" data-name="Path 258" d="M1309.912,1001.043q-.085,1.225-.172,2.45a11.375,11.375,0,0,1-7.69-6.563C1304.736,999.041,1306.863,1001.048,1309.912,1001.043Z" transform="translate(1600.725 756.032)" fill="#f45441"/>
    <path id="Path_259" data-name="Path 259" d="M2411.209,1289.84a12.91,12.91,0,0,1,12.884,12.993,12.745,12.745,0,0,1-13.059,12.863c-8.485-.069-12.889-6.783-12.884-13.03C2398.153,1295.592,2404.27,1289.49,2411.209,1289.84Zm-8.27,11.532,7.178,7.085,9.042-9.061-1.976-1.8-7.066,6.945-5.229-4.953Z" transform="translate(795.267 540.801)" fill="#e0e9f7"/>
    <path id="Path_260" data-name="Path 260" d="M2230.734,821.931l-.064-.231.18.026Z" transform="translate(918.869 885.328)" fill="#f45441"/>
    <path id="Path_261" data-name="Path 261" d="M2228,827.434c.042-.069.088-.135.133-.2-.04.074-.077.148-.114.223Z" transform="translate(920.3 880.734)" fill="#f45441"/>
    <path id="Path_262" data-name="Path 262" d="M1555.68,1192.241q.891-2.858,1.784-5.722c1.973-1.289,3.94-2.591,5.929-3.861.565-.363,1.185-.644,2.036-1.1.218,2.917-2.689,3.227-3.585,5.274,2.7.764,5.367,1.5,8.021,2.272,1.437.416,2.877.835,4.274,1.363.469.175.814.687,1.217,1.045l-.233.549-5.205-.944c1.856,2.013,4.7,2.288,6.894,4.418l-2.2.673c.087.5.172.994.265,1.514-.377.119-.647.308-.854.265-1.27-.334-2.524-.724-3.784-1.092l-.87-.239.6.53,1.236,1.652c-2.31.31-3.651-1.18-5.28-1.769-1.824-.658-3.646-1.344-5.4-2.169C1558.865,1194.115,1557.292,1193.137,1555.68,1192.241Z" transform="translate(1414.347 620.359)" fill="#f49b87"/>
    <path id="Path_263" data-name="Path 263" d="M1548.465,1112.836h-14.547c-1.365-2.808-2.728-5.608-4.208-8.644a15.451,15.451,0,0,1,1.824-.265c3.519-.016,7.04.034,10.559-.019a2.9,2.9,0,0,1,3.182,2.121C1546.092,1108.217,1547.248,1110.3,1548.465,1112.836Z" transform="translate(1433.431 677.421)" fill="#e4eaf7"/>
    <path id="Path_264" data-name="Path 264" d="M1511.986,1112.7c-3.071.607-3.131.626-4.243-1.657-1.061-2.19-2.007-4.436-3.033-6.724,3.407-.416,3.407-.416,4.733,2.212.634,1.259,1.326,2.5,1.877,3.786A15.712,15.712,0,0,1,1511.986,1112.7Z" transform="translate(1451.802 677.27)" fill="#e8ecfe"/>
    <path id="Path_265" data-name="Path 265" d="M1385.89,1111.621c.448-2.477.888-4.953,1.342-7.424a14.094,14.094,0,0,1,.777-2.917c.933,2.042.53,4.192.517,6.271s-.345,4.152-.53,6.229Q1386.943,1112.7,1385.89,1111.621Z" transform="translate(1539.116 679.352)" fill="#112e5d"/>
    <path id="Path_266" data-name="Path 266" d="M1503.449,613.662l-.2-.122.218.1Z" transform="translate(1452.875 1037.762)" fill="#f45441"/>
    <path id="Path_267" data-name="Path 267" d="M2039.668,374.722c-.071.411-.146.822-.22,1.233a3.969,3.969,0,0,1-3.508-2.018l.037-.037Z" transform="translate(1061.433 1213.859)" fill="#f45441" opacity="0.53"/>
    <path id="Path_268" data-name="Path 268" d="M2031.919,370l.53.53-.029.029-.53-.53Z" transform="translate(1064.41 1216.725)" fill="#f45441"/>
    <path id="Path_269" data-name="Path 269" d="M2034.46,372.45l-.53-.53.029-.029c.178.17.353.342.53.514Z" transform="translate(1062.91 1215.336)" fill="#f45441"/>
    <path id="Path_270" data-name="Path 270" d="M2031.442,369.633l-.2-.133.223.114Z" transform="translate(1064.887 1217.092)" fill="#f45441"/>
    <path id="Path_271" data-name="Path 271" d="M912.155,1301.4l-.8-1.421c.8-1.254,1.591-2.527,2.434-3.76a14.775,14.775,0,0,0,2.278-11.362,43.624,43.624,0,0,1-.74-10.243,25.29,25.29,0,0,1,3.755-12.24,30.888,30.888,0,0,1,1.944-2.437l1.164,1.286c-4.145,5.012-5.481,10.821-5.234,17.066.082,2.1.456,4.19.737,6.276.663,4.9-.072,9.482-3.065,13.55C913.815,1299.221,912.98,1300.308,912.155,1301.4Z" transform="translate(1887.819 562.762)" fill="#41b3ba"/>
    <path id="Path_272" data-name="Path 272" d="M705.473,1530.09c1.143,2.805,2.233,5.637,3.447,8.416a44.8,44.8,0,0,0,12.513,16.337c1.374,1.164,2.6,2.5,3.887,3.763l-1.445.149a43.7,43.7,0,0,1-14.335-15.459c-1.856-3.418-3.081-7.2-4.593-10.811-.334-.8-.679-1.591-1.018-2.386Z" transform="translate(2040.246 364.245)" fill="#4ccfb1"/>
    <path id="Path_273" data-name="Path 273" d="M671.8,1508.032h-1.551c-3.2-3.694-7.512-5.5-12.144-6.751v-.61c.443-.209.957-.681,1.326-.586C664.4,1501.4,669.184,1503.034,671.8,1508.032Z" transform="translate(2073.924 386.303)" fill="#56f6a5"/>
    <path id="Path_274" data-name="Path 274" d="M2416.21,1322.913l1.949-1.782,5.229,4.953,7.067-6.944,1.975,1.8-9.042,9.061Z" transform="translate(781.996 519.259)" fill="#67b5ff"/>
    <path id="Path_275" data-name="Path 275" d="M1607.9,1239.02l-.6-.53.87.239C1608.08,1238.816,1607.99,1238.917,1607.9,1239.02Z" transform="translate(1376.415 578.524)" fill="#fdfdfd"/>
  </g>
</svg>
