<svg xmlns="http://www.w3.org/2000/svg" width="278.314" height="50.908" viewBox="0 0 278.314 50.908">
  <g id="bestlegal-white-logo-19233608aefb6058c911d1babbb2723d" transform="translate(0 -0.12)">
    <path id="Path_1" data-name="Path 1" d="M198.634,391.363c.016-.068-.038-.094-.076-.133-.193-.193-.194-.217.019-.3a4.328,4.328,0,0,0,2.3-2.278,3.214,3.214,0,0,0-.129-3.024c-.094-.18-.2-.352-.305-.542.572-.026.757.117,1.657,1.276.162-.055.19-.219.273-.338a2.935,2.935,0,0,1,.783-.8.911.911,0,0,1,.47-.183.149.149,0,0,1,.1.033.1.1,0,0,1,.014.1c-.061.117-.133.225-.2.34a4.171,4.171,0,0,0-.43,1.1,2.849,2.849,0,0,0,.1,1.714,4.349,4.349,0,0,0,2.412,2.6c.068.029.143.048.173.127.018.15-.211.16-.177.318h-.789c-.079-.124-.221-.134-.339-.177a3.784,3.784,0,0,1-1.385-.925,5.391,5.391,0,0,1-.774-1.026c-.063-.106-.086-.255-.266-.291-.093.149-.188.305-.285.46a4.23,4.23,0,0,1-2.135,1.812c-.086.031-.183.047-.225.147Z" transform="translate(-176.669 -340.338)" fill="#fcfdff"/>
    <path id="Path_2" data-name="Path 2" d="M142.71,12.687a3.077,3.077,0,0,1-.45,1.265,1.6,1.6,0,0,1-.345.366,1.046,1.046,0,0,1-1.056.182,3.109,3.109,0,0,1-1-.622,10.887,10.887,0,0,0-1.2-.931,6.061,6.061,0,0,0-1.944-.867,3.956,3.956,0,0,0-3.317.649A5.343,5.343,0,0,0,132.08,14.1a7.386,7.386,0,0,0-1.265,3.4,64.485,64.485,0,0,0-.337,10.066,21.847,21.847,0,0,0,.554,4.124,8.676,8.676,0,0,0,.644,1.855,3.946,3.946,0,0,0,.663.973,2.193,2.193,0,0,0,1.375.7,7.974,7.974,0,0,1,1.917.437,4.486,4.486,0,0,1,1.364.775,2.828,2.828,0,0,1,.99,1.659c.039.2-.02.281-.223.292-.15.008-.3,0-.451,0H120.98c-.332-.012-.386-.079-.309-.417a2.728,2.728,0,0,1,.613-1.189,3.926,3.926,0,0,1,1.409-1,6.869,6.869,0,0,1,2.119-.542,2.371,2.371,0,0,0,1.734-1.027A5.546,5.546,0,0,0,127.3,32.7a14.627,14.627,0,0,0,.668-3.075,47.712,47.712,0,0,0,.168-7.982c-.057-1.257-.16-2.51-.275-3.763a7.991,7.991,0,0,0-1.164-3.552A5.634,5.634,0,0,0,125.572,13a4,4,0,0,0-4-.822,7.148,7.148,0,0,0-2.43,1.386c-.217.178-.43.364-.65.539a2.553,2.553,0,0,1-.682.39,1.071,1.071,0,0,1-1.147-.222,1.418,1.418,0,0,1-.235-.243,2.994,2.994,0,0,1-.489-1.233c.144-.027.2.062.265.117.135.1.262.215.4.3a.909.909,0,0,0,1.056-.032,3.378,3.378,0,0,0,.752-.755,6.778,6.778,0,0,1,2-1.711,6.329,6.329,0,0,1,2.1-.79,4.678,4.678,0,0,1,3.4.626c.191.117.38.241.579.352a.977.977,0,0,0,1.065-.053,2.994,2.994,0,0,0,.778-.727c.168-.227.164-.274-.006-.486a3,3,0,0,1-.271-.352,1.783,1.783,0,0,1-.15-1.468,6.145,6.145,0,0,1,.538-1.237c.235-.408.47-.81.72-1.209.081-.133.2-.147.268-.036a9.623,9.623,0,0,1,1.291,2.55,1.74,1.74,0,0,1-.366,1.684c-.048.058-.1.11-.151.167a.2.2,0,0,0-.016.256,2.7,2.7,0,0,0,1.021.946.891.891,0,0,0,.815.018,3.383,3.383,0,0,0,.49-.276,4.77,4.77,0,0,1,4.361-.551,6.917,6.917,0,0,1,3.256,2.23,6.889,6.889,0,0,0,.522.587,1.051,1.051,0,0,0,1.637.092C142.4,12.943,142.5,12.86,142.71,12.687Z" transform="translate(-103.874 -5.14)" fill="#fdfeff"/>
    <path id="Path_3" data-name="Path 3" d="M1918.609,115.22a7.493,7.493,0,0,1,1.976.289,6.471,6.471,0,0,1,4.726,4.759,8.77,8.77,0,0,1,.331,2.28,13.657,13.657,0,0,1-.87,5.133,10.1,10.1,0,0,1-2.324,3.688,9.192,9.192,0,0,1-5.322,2.592,9.333,9.333,0,0,1-3.359-.089,6.667,6.667,0,0,1-5.209-4.91,8.3,8.3,0,0,1-.343-2.39,13.188,13.188,0,0,1,1.217-5.68,9.658,9.658,0,0,1,2.929-3.727A9.926,9.926,0,0,1,1918.609,115.22Zm-6.221,11c0,.188-.01.376,0,.562a5.473,5.473,0,0,0,.542,2.167,3.188,3.188,0,0,0,2.23,1.737,4.217,4.217,0,0,0,3.57-.743,5.023,5.023,0,0,0,1.492-1.805,11.542,11.542,0,0,0,1.258-5.648,5.41,5.41,0,0,0-.448-2.078,3.006,3.006,0,0,0-2.207-1.826,4.273,4.273,0,0,0-3.836.954,5.987,5.987,0,0,0-1.485,1.959,11.173,11.173,0,0,0-1.122,4.725Z" transform="translate(-1685.765 -102.192)" fill="#fdfeff"/>
    <path id="Path_4" data-name="Path 4" d="M487.76,125.064l.508.235a3.8,3.8,0,0,1,2.3,3.052,4.787,4.787,0,0,1-1.369,4.226,7.315,7.315,0,0,1-3.563,1.924,17.24,17.24,0,0,1-3.513.426,32.014,32.014,0,0,1-4.776-.2c-.075-.008-.149-.015-.223-.028-.469-.08-.5-.109-.406-.587q.8-4.226,1.6-8.459.768-4.064,1.534-8.126a4.278,4.278,0,0,0,.086-.441.362.362,0,0,1,.365-.352c.556-.081,1.112-.178,1.672-.235a25.826,25.826,0,0,1,3.654-.117,10.536,10.536,0,0,1,1.951.252,6.939,6.939,0,0,1,1.922.779,3.836,3.836,0,0,1,1.409,5.323,4.708,4.708,0,0,1-2.308,1.98C488.355,124.822,488.114,124.917,487.76,125.064Zm-4.728,1.561h-.789c-.277.007-.311.035-.365.32q-.431,2.291-.855,4.585c-.041.223-.007.276.209.3a8.469,8.469,0,0,0,2.958-.175,3.822,3.822,0,0,0,1.082-.461,2.51,2.51,0,0,0,1.181-2.7,1.889,1.889,0,0,0-1.021-1.409,3.562,3.562,0,0,0-1.056-.352,6.418,6.418,0,0,0-1.345-.1Zm.478-2.85h0c.187,0,.375.009.561,0a5.132,5.132,0,0,0,2.012-.453,2.51,2.51,0,0,0,.985-.812,1.851,1.851,0,0,0-1.122-2.982c-.036-.008-.074-.013-.11-.021a6.817,6.817,0,0,0-2.179-.026.364.364,0,0,0-.363.342c-.126.7-.269,1.4-.4,2.093-.1.533-.205,1.065-.3,1.6-.034.181.018.252.194.258.241.009.485,0,.728,0Z" transform="translate(-422.264 -103.203)" fill="#fdfeff"/>
    <path id="Path_5" data-name="Path 5" d="M1756.705,128.193h-2.7q-.2,0-.394.006a.254.254,0,0,0-.263.235q-.111.609-.235,1.217-.54,2.876-1.081,5.752c-.079.414,0,.487-.571.485h-3.154c-.2-.015-.256-.08-.217-.292q.22-1.19.448-2.378.822-4.313,1.644-8.624.625-3.287,1.249-6.579a2.043,2.043,0,0,1,.048-.219.235.235,0,0,1,.235-.195h3.328a1.192,1.192,0,0,1,.168.012.164.164,0,0,1,.157.19,3.917,3.917,0,0,1-.059.389q-.568,2.985-1.138,5.97a.318.318,0,0,1-.012.055c-.085.479-.058.52.428.521h5.752c.305-.015.359-.05.418-.343.124-.626.24-1.252.359-1.878q.413-2.184.822-4.369c.021-.11.053-.219.074-.33a.245.245,0,0,1,.278-.215h3.211a2.23,2.23,0,0,1,.28.012.154.154,0,0,1,.158.185c-.025.185-.061.37-.095.554q-.873,4.588-1.749,9.177-.748,3.925-1.492,7.852c-.007.036-.01.074-.018.112-.078.384-.092.4-.469.407h-3.209c-.235-.006-.293-.074-.249-.322.117-.664.245-1.328.371-2q.463-2.465.927-4.922a.4.4,0,0,1,.01-.055c.057-.352.026-.4-.329-.4h-2.929Z" transform="translate(-1544.428 -104.292)" fill="#fdfeff"/>
    <path id="Path_6" data-name="Path 6" d="M1221.244,124.016H1224a2.442,2.442,0,0,1,.391.026.156.156,0,0,1,.094.117,1.52,1.52,0,0,1-.029.333q-.832,4.343-1.668,8.679a.461.461,0,0,1-.01.055.538.538,0,0,1-.441.5c-.6.166-1.191.335-1.8.47a16.725,16.725,0,0,1-4.641.407,9.507,9.507,0,0,1-2.7-.524,6.679,6.679,0,0,1-4.672-5.625,10.647,10.647,0,0,1,2.573-8.846,10.2,10.2,0,0,1,4.483-2.911,13.673,13.673,0,0,1,4.424-.735,14.7,14.7,0,0,1,3.687.377,9.542,9.542,0,0,1,.916.276c.4.143.416.191.283.572-.154.443-.317.883-.477,1.324-.146.406-.288.813-.438,1.218-.107.289-.135.305-.4.2a8.2,8.2,0,0,0-1.291-.373,10.131,10.131,0,0,0-3.916-.085,6.516,6.516,0,0,0-5.261,4.615,7.71,7.71,0,0,0-.343,3.611,3.907,3.907,0,0,0,3.2,3.477,6.73,6.73,0,0,0,2.741.025c.129-.025.254-.067.381-.1a.431.431,0,0,0,.352-.38c.2-1.108.419-2.213.629-3.318.034-.181-.018-.252-.194-.255-.587-.007-1.164,0-1.745-.011a1.833,1.833,0,0,1-.777-.056c-.1-.268.042-.514.085-.765.1-.587.22-1.181.352-1.761.117-.525-.009-.542.636-.54h1.526Z" transform="translate(-1068.098 -102.85)" fill="#fdfeff"/>
    <path id="Path_7" data-name="Path 7" d="M1358.706,117.488h2.193c.3.013.326.034.364.31s.068.521.1.782q.389,3.3.775,6.6c.207,1.771.406,3.543.613,5.314.176,1.51.37,3.018.533,4.529.088.822.209.764-.669.765h-3.094c-.216-.014-.262-.055-.282-.266q-.052-.533-.092-1.066-.117-1.488-.222-2.976a2.8,2.8,0,0,0-.027-.281.2.2,0,0,0-.193-.17c-.075-.007-.15-.011-.224-.011h-4.45c-.075,0-.15,0-.225.007a.248.248,0,0,0-.223.144c-.066.135-.131.27-.194.406q-.8,1.771-1.594,3.543c-.061.137-.131.27-.187.41a.352.352,0,0,1-.383.264h-3.44a1.5,1.5,0,0,1-.279-.025.117.117,0,0,1-.092-.17,3.423,3.423,0,0,1,.158-.36l8.4-17.264a.908.908,0,0,0,.049-.1.521.521,0,0,1,.594-.387C1357.315,117.506,1358.011,117.488,1358.706,117.488Zm-.6,3.234c-.193.058-.2.2-.249.317-.275.677-.526,1.364-.822,2.032-.631,1.422-1.285,2.831-1.93,4.247-.071.154-.143.305-.207.461-.072.176-.028.251.153.255.3.007.6.006.9.006h2.474c.216,0,.275-.063.268-.265-.007-.224-.021-.45-.046-.673-.191-1.751-.342-3.506-.44-5.265C1358.187,121.465,1358.141,121.1,1358.107,120.722Z" transform="translate(-1190.782 -104.19)" fill="#fdfeff"/>
    <path id="Path_8" data-name="Path 8" d="M1088.4,135.866h-5.353c-.207-.012-.259-.077-.219-.29q.221-1.19.45-2.379l1.643-8.629q.625-3.287,1.25-6.583a1.927,1.927,0,0,1,.073-.271.187.187,0,0,1,.164-.133c.117-.009.225-.012.337-.012h9.8c.607,0,.515.068.427.543-.149.812-.312,1.622-.469,2.432a2.157,2.157,0,0,1-.061.217.2.2,0,0,1-.205.155c-.169,0-.338.007-.507.007h-5.916c-.245.011-.281.034-.336.286-.08.366-.144.737-.217,1.1-.117.626-.25,1.251-.37,1.878a3.6,3.6,0,0,0-.051.446.141.141,0,0,0,.132.153,4.909,4.909,0,0,0,.5.027h5.127c.822,0,.7-.035.569.695s-.3,1.433-.425,2.154c-.082.479-.2.437-.56.437h-5.522c-.494,0-.5,0-.587.47q-.329,1.714-.654,3.429c-.093.489-.074.513.421.514h6.085c.8,0,.7-.039.566.7q-.214,1.163-.439,2.324c-.055.285-.083.309-.369.313-.432.008-.864,0-1.291,0Z" transform="translate(-957.255 -104.266)" fill="#fcfdff"/>
    <path id="Path_9" data-name="Path 9" d="M2268.783,135.82h-4.957c-.648,0-.646,0-.528-.619l2.215-11.67c.343-1.807.676-3.615,1.034-5.42.117-.615,0-.593.7-.593h9.575c.6,0,.7-.065.535.649-.172.769-.313,1.545-.454,2.321-.065.362-.111.383-.483.383h-6.253a.247.247,0,0,0-.27.224c-.054.3-.117.587-.175.884q-.235,1.188-.469,2.376a1.343,1.343,0,0,0-.026.223.144.144,0,0,0,.117.161,4.606,4.606,0,0,0,.5.028h5.351c.48.008.5.026.417.47-.154.811-.319,1.62-.48,2.43-.014.074-.039.146-.06.217a.206.206,0,0,1-.2.158c-.169,0-.338.009-.507.009h-5.183c-.753,0-.6.009-.718.578-.235,1.14-.436,2.285-.65,3.429a2.16,2.16,0,0,0-.038.277.107.107,0,0,0,.1.117c.168.013.337.02.506.02h6.422c.15,0,.195.067.171.223-.038.259-.086.518-.133.777q-.176,1-.37,2c-.057.3-.1.342-.41.343h-3.154Z" transform="translate(-1999.116 -104.22)" fill="#fcfdff"/>
    <path id="Path_10" data-name="Path 10" d="M616.663,135.83H611.7c-.634,0-.663.035-.529-.664q.939-4.922,1.869-9.846c.454-2.4.9-4.8,1.37-7.19.117-.624,0-.6.7-.6h9.634c.61,0,.609,0,.5.58-.162.829-.32,1.659-.487,2.486-.05.254-.08.272-.335.283-.15.006-.3,0-.451,0h-5.808c-.336.011-.352.015-.413.326q-.326,1.628-.641,3.26c-.045.229.019.3.268.31.15.008.3,0,.451,0h4.957c.169,0,.338,0,.507.006.213.012.268.07.228.285-.124.683-.249,1.366-.4,2.045-.067.305,0,.7-.266.89-.235.17-.587.058-.883.059h-5.239c-.248.013-.284.038-.333.286-.153.774-.3,1.548-.446,2.322q-.153.8-.3,1.6a.143.143,0,0,0,.146.188c.169.009.338.012.506.012h6.084c.511,0,.516,0,.428.5-.149.831-.308,1.661-.47,2.491a1.274,1.274,0,0,1-.065.215.187.187,0,0,1-.169.128c-.169.009-.338.013-.507.013Z" transform="translate(-540.92 -104.23)" fill="#fcfdff"/>
    <path id="Path_11" data-name="Path 11" d="M727.493,129.534c.235.117.4.2.57.282a8.539,8.539,0,0,0,3.979.853,3.423,3.423,0,0,0,1.761-.5,1.811,1.811,0,0,0,.905-1.7,1.788,1.788,0,0,0-.47-1.119,3.433,3.433,0,0,0-.77-.654c-.365-.235-.738-.446-1.11-.663-.308-.18-.621-.352-.927-.533a10.219,10.219,0,0,1-1.1-.782,4.8,4.8,0,0,1-1.036-6.517,5.656,5.656,0,0,1,2.113-1.974,7.878,7.878,0,0,1,3.154-.964,10.956,10.956,0,0,1,4.02.3,5.961,5.961,0,0,1,1.1.42c.251.128.275.182.185.441-.067.195-.144.386-.217.58-.18.47-.352.948-.542,1.419a3.714,3.714,0,0,1-.352.822c-.319.048-.561-.163-.836-.257a7.62,7.62,0,0,0-3.106-.389,3.223,3.223,0,0,0-1.237.352,1.972,1.972,0,0,0-.688.57,1.494,1.494,0,0,0-.049,1.787,3.244,3.244,0,0,0,.848.822,17.992,17.992,0,0,0,1.635.992c.392.221.779.452,1.157.7a6.18,6.18,0,0,1,1.038.863,4.547,4.547,0,0,1,1.325,3.8,5.558,5.558,0,0,1-3.242,4.679,8.569,8.569,0,0,1-3.246.858,12,12,0,0,1-4.606-.529,6.076,6.076,0,0,1-1.332-.6c-.117-.075-.2-.174-.144-.325C726.673,131.573,727.071,130.583,727.493,129.534Z" transform="translate(-642.548 -102.171)" fill="#fdfeff"/>
    <path id="Path_12" data-name="Path 12" d="M2143.042,133.936a9.466,9.466,0,0,1-3.322-.447,6.856,6.856,0,0,1-4.93-5.987,11.01,11.01,0,0,1,1.347-7.064,10.169,10.169,0,0,1,6.456-4.914,12.474,12.474,0,0,1,6.349-.067,4.5,4.5,0,0,1,.9.315.2.2,0,0,1,.117.276l-.953,2.767a.191.191,0,0,1-.268.126c-.307-.088-.608-.195-.919-.264a8.71,8.71,0,0,0-3.742-.075,5.971,5.971,0,0,0-3.732,2.438,7.607,7.607,0,0,0-1.383,3.874,7.8,7.8,0,0,0,.075,2.075,4.174,4.174,0,0,0,4,3.565,9.378,9.378,0,0,0,3.837-.412c.035-.012.072-.025.107-.034.216-.06.276-.023.3.188q.051.419.092.839c.053.522.108,1.046.152,1.569.039.47.033.479-.428.637a10.183,10.183,0,0,1-2.085.462A12.724,12.724,0,0,1,2143.042,133.936Z" transform="translate(-1885.645 -102.069)" fill="#fdfeff"/>
    <path id="Path_13" data-name="Path 13" d="M1632.14,130.034c.034.18.067.305.081.433q.127,1.174.245,2.348c.028.281,0,.32-.257.423a9.834,9.834,0,0,1-2.295.543,15.965,15.965,0,0,1-2.7.117,9.081,9.081,0,0,1-2.865-.54,6.746,6.746,0,0,1-4.57-5.4,10.974,10.974,0,0,1,1.167-7.367,10.2,10.2,0,0,1,6.734-5.143,12.367,12.367,0,0,1,6.132-.026,7.052,7.052,0,0,1,.8.259c.277.106.305.176.2.475-.235.711-.486,1.42-.73,2.13-.055.16-.1.322-.162.48s-.13.2-.305.139a8.891,8.891,0,0,0-2.7-.491,7.429,7.429,0,0,0-2.341.258,5.931,5.931,0,0,0-3.2,2.177,7.53,7.53,0,0,0-1.45,3.558,7.616,7.616,0,0,0-.012,2.356,5.458,5.458,0,0,0,.308,1.139,3.946,3.946,0,0,0,2.382,2.325,4.908,4.908,0,0,0,1.425.311,9.881,9.881,0,0,0,3.834-.448A2.6,2.6,0,0,1,1632.14,130.034Z" transform="translate(-1431.015 -102.042)" fill="#fdfeff"/>
    <path id="Path_14" data-name="Path 14" d="M864.156,121.053a1.241,1.241,0,0,0-.6-.055h-3.606c-.54,0-.547,0-.445-.532q.252-1.3.522-2.594c.062-.3.079-.3.369-.312h12.62c.765,0,.654,0,.546.634-.133.777-.292,1.549-.44,2.323-.014.074-.027.148-.047.221-.057.212-.1.25-.3.261-.15.007-.3,0-.451,0h-3.831c-.317.012-.352.038-.413.339-.157.811-.309,1.622-.463,2.433l-1.64,8.631c-.189,1-.372,2-.57,2.986-.083.416,0,.47-.587.47h-3.1c-.252-.014-.3-.067-.256-.306q.272-1.467.552-2.935l1.643-8.629q.252-1.328.5-2.655a.352.352,0,0,0,0-.279Z" transform="translate(-760.114 -104.258)" fill="#fcfdff"/>
    <path id="Path_15" data-name="Path 15" d="M1505.21,132.243c.234.006.435.016.639.016h6.025c.219.011.263.061.223.281q-.261,1.409-.531,2.817c-.056.291-.1.32-.42.33h-9.854c-.169,0-.338,0-.506-.011-.135-.008-.2-.088-.17-.235q.154-.859.317-1.716,1-5.252,2-10.5.51-2.681,1.018-5.362c.018-.092.041-.183.064-.274a.228.228,0,0,1,.235-.2c.056,0,.117-.006.169-.006h3.153a1.322,1.322,0,0,1,.169.007.161.161,0,0,1,.164.183,3.126,3.126,0,0,1-.052.39q-1.307,6.882-2.619,13.764A.993.993,0,0,0,1505.21,132.243Z" transform="translate(-1326.008 -104.099)" fill="#fcfdff"/>
    <path id="Path_16" data-name="Path 16" d="M974.673,132.291a1.224,1.224,0,0,0,.6.058h5.686a4.548,4.548,0,0,1,.506.019.135.135,0,0,1,.123.158c-.018.149-.048.3-.076.443q-.234,1.245-.47,2.487c-.054.282-.1.312-.365.326H970.77c-.722,0-.736.047-.587-.7q.873-4.559,1.735-9.121.749-3.952,1.5-7.906c.014-.074.032-.147.049-.22.08-.335.082-.346.4-.352h3.327c.173.014.235.08.2.257q-.211,1.162-.432,2.323l-1.643,8.623q-.31,1.63-.619,3.261A.6.6,0,0,0,974.673,132.291Z" transform="translate(-857.777 -104.187)" fill="#fcfdff"/>
    <path id="Path_17" data-name="Path 17" d="M2066.017,135.844h-1.634c-.216,0-.269-.068-.235-.278q.264-1.44.538-2.878.872-4.591,1.748-9.182.52-2.739,1.035-5.477c.017-.092.041-.183.064-.274a.228.228,0,0,1,.235-.2c.056,0,.117-.006.169-.006h3.1a1.445,1.445,0,0,1,.224.014.169.169,0,0,1,.157.194,3.568,3.568,0,0,1-.051.391q-1.432,7.522-2.865,15.044c-.148.775-.29,1.549-.444,2.323-.065.323-.076.329-.408.333-.545.006-1.089,0-1.634,0Z" transform="translate(-1823.388 -104.248)" fill="#fcfdff"/>
    <path id="Path_18" data-name="Path 18" d="M278.906,110.738a1.6,1.6,0,0,1,.669-.055c.642,0,.628.04.878-.624q.636-1.684,1.269-3.37l2.481-6.579c.08-.21.157-.423.254-.626a.6.6,0,0,1,.578-.376.608.608,0,0,1,.574.382c.1.2.178.413.257.623q1.7,4.529,3.4,9.058c.126.333.247.669.376,1,.188.484.235.512.739.5h.506c.318.015.352.065.228.381a3.638,3.638,0,0,1-.2.462,6.491,6.491,0,0,1-5.879,3.6,6.582,6.582,0,0,1-5.956-3.746A.974.974,0,0,1,278.906,110.738Zm6.133-9.08c-.17.117-.189.32-.252.491q-1.326,3.5-2.641,7.008c-.158.421-.319.843-.47,1.265-.05.14,0,.214.144.225.094.008.188.009.282.009h5.86a2.037,2.037,0,0,0,.337-.018c.072-.012.144-.055.117-.154s-.053-.181-.086-.268q-1.56-4.135-3.122-8.271a.605.605,0,0,0-.164-.289Z" transform="translate(-247.7 -87.97)" fill="#fcfdff"/>
    <path id="Path_19" data-name="Path 19" d="M82.762,115.134a6.458,6.458,0,0,1-5.975-3.787c-.309-.617-.288-.628.4-.629h.451a.407.407,0,0,0,.423-.3c.058-.158.123-.315.183-.47l3.735-9.9c.06-.158.117-.316.188-.47a.622.622,0,0,1,.6-.424.633.633,0,0,1,.6.438c.075.171.143.352.209.522q1.855,4.93,3.708,9.853l.16.421a.482.482,0,0,0,.519.342c.281-.011.562,0,.843.012a.11.11,0,0,1,.117.15,5.056,5.056,0,0,1-.251.626,6.545,6.545,0,0,1-4.565,3.521,4.075,4.075,0,0,1-.61.1C83.25,115.147,83.006,115.134,82.762,115.134Zm.014-4.438H85.87c.292,0,.319-.056.221-.344-.006-.018-.014-.035-.02-.053q-1.562-4.134-3.115-8.265a1.1,1.1,0,0,0-.126-.249.076.076,0,0,0-.135,0,2.659,2.659,0,0,0-.14.305l-3.052,8.1a2.628,2.628,0,0,0-.1.32.117.117,0,0,0,.117.155,4.412,4.412,0,0,0,.448.021q1.4.012,2.808.011Z" transform="translate(-69.149 -88.008)" fill="#fcfdff"/>
    <path id="Path_20" data-name="Path 20" d="M257.892,361.421c.052.133-.034.221-.088.313a5.994,5.994,0,0,1-1.345,1.574,7.557,7.557,0,0,1-3.97,1.716,7.985,7.985,0,0,1-1.458.045,17.433,17.433,0,0,0-3.7.148,3.78,3.78,0,0,0-1.77.666.143.143,0,0,1-.1.025c-.066-.014-.072-.074-.069-.129a3.4,3.4,0,0,1,.271-1.143,4.415,4.415,0,0,1,1.742-2.078,7.327,7.327,0,0,1,2.553-.992,11.3,11.3,0,0,1,1.837-.245,9.046,9.046,0,0,1,2.23.254,7.716,7.716,0,0,0,1.447.184,7.88,7.88,0,0,0,2-.278C257.605,361.445,257.74,361.356,257.892,361.421Z" transform="translate(-218.126 -319.4)" fill="#fcfdff"/>
    <path id="Path_21" data-name="Path 21" d="M107.985,361.514c.134-.067.254.008.377.04a8.643,8.643,0,0,0,1.546.283,6.852,6.852,0,0,0,1.9-.157c.311-.066.624-.13.939-.177a9.332,9.332,0,0,1,4.79.654,5,5,0,0,1,1.439.866,4.281,4.281,0,0,1,1.478,2.52,2.094,2.094,0,0,1,.029.391c0,.068-.062.079-.117.067a.126.126,0,0,1-.05-.023,4.529,4.529,0,0,0-2.381-.752,24.788,24.788,0,0,0-3.315-.059,7.436,7.436,0,0,1-5.733-2.271,5.3,5.3,0,0,1-.844-1.12C108,361.694,107.937,361.615,107.985,361.514Z" transform="translate(-96.837 -319.489)" fill="#fcfdff"/>
    <path id="Path_22" data-name="Path 22" d="M248.082,307.8a7.628,7.628,0,0,1,2.247-6.015,33.8,33.8,0,0,1,3.879-3.159c.153-.106.31-.2.47-.306.043.074,0,.117-.032.156a7.4,7.4,0,0,0-1.35,3.357,8.057,8.057,0,0,1-.191.878,4.712,4.712,0,0,1-1.643,2.433,6.973,6.973,0,0,1-1.277.822,4.566,4.566,0,0,0-1.9,1.7.488.488,0,0,1-.073.086A.7.7,0,0,1,248.082,307.8Z" transform="translate(-220.504 -263.799)" fill="#fcfdff"/>
    <path id="Path_23" data-name="Path 23" d="M163.433,309.292a.94.94,0,0,1-.352-.391,4.46,4.46,0,0,0-1.546-1.363c-.364-.193-.723-.4-1.066-.626a4.929,4.929,0,0,1-2.23-3.493,8.786,8.786,0,0,0-.552-2.058,6.659,6.659,0,0,0-.518-1c-.05-.079-.106-.155-.15-.235-.023-.043-.068-.11.007-.14a.2.2,0,0,1,.149.025c.128.077.251.164.373.251a37.967,37.967,0,0,1,3.567,2.917,7.083,7.083,0,0,1,2.188,4.146,7.36,7.36,0,0,1,.127,1.291C163.433,308.817,163.433,309.026,163.433,309.292Z" transform="translate(-140.101 -265.269)" fill="#fcfdff"/>
    <path id="Path_24" data-name="Path 24" d="M57.456,316a1.436,1.436,0,0,1,.2.059,9.272,9.272,0,0,0,2.582.737c.666.109,1.333.212,2,.34a8.921,8.921,0,0,1,2.922,1.132,18.939,18.939,0,0,1,3.036,2.31c.052.047.117.089.108.182-.1.04-.178-.022-.257-.058a7.146,7.146,0,0,0-2.4-.533c-1.085-.075-2.169-.157-3.254-.235a4.478,4.478,0,0,1-2.161-.729,8.487,8.487,0,0,1-2.693-2.9,1.388,1.388,0,0,1-.087-.205A.441.441,0,0,1,57.456,316Z" transform="translate(-52.248 -279.404)" fill="#fcfdff"/>
    <path id="Path_25" data-name="Path 25" d="M310.115,320.844c-.034-.092.04-.134.088-.178a19.02,19.02,0,0,1,3.084-2.348,9.714,9.714,0,0,1,3.423-1.218c.683-.117,1.37-.22,2.052-.339a7.686,7.686,0,0,0,1.878-.575,2.457,2.457,0,0,1,.262-.1c.012,0,.032.018.049.028.035.144-.063.245-.127.352a8.8,8.8,0,0,1-2.348,2.619,4.712,4.712,0,0,1-2.551.939c-1.1.069-2.207.156-3.31.235a6.818,6.818,0,0,0-2.183.493A.611.611,0,0,1,310.115,320.844Z" transform="translate(-275.249 -279.484)" fill="#fcfdff"/>
    <path id="Path_26" data-name="Path 26" d="M298.549,284.877a1.952,1.952,0,0,1-.092.659,10.779,10.779,0,0,1-.776,2.582,6.327,6.327,0,0,1-.99,1.561A4.611,4.611,0,0,1,294.764,291a8.59,8.59,0,0,0-1.38.63,5.2,5.2,0,0,0-1.473,1.2.871.871,0,0,1-.128.107c-.1-.086-.028-.168,0-.243a9.157,9.157,0,0,1,4.056-5.346,7.758,7.758,0,0,0,2.53-2.355A.186.186,0,0,1,298.549,284.877Z" transform="translate(-259.029 -251.934)" fill="#fcfdff"/>
    <path id="Path_27" data-name="Path 27" d="M117,293.006c-.059-.033-.1-.043-.117-.07a5.9,5.9,0,0,0-2.365-1.673c-.139-.059-.275-.117-.417-.17a4.9,4.9,0,0,1-2.774-2.419,10.285,10.285,0,0,1-1.036-3.08q-.053-.276-.1-.554a.352.352,0,0,1,.019-.109c.135.007.175.123.235.211a7.458,7.458,0,0,0,2.373,2.2,9.2,9.2,0,0,1,4.158,5.461.961.961,0,0,1,.027.109.46.46,0,0,1-.007.094Z" transform="translate(-98.808 -251.981)" fill="#fcfdff"/>
    <path id="Path_28" data-name="Path 28" d="M355.62,248.47a2.686,2.686,0,0,1,.205.74,6.865,6.865,0,0,1-2.444,6.893c-.257.217-.538.406-.812.6a.216.216,0,0,1-.155.029c-.059-.013-.07-.077-.062-.135a8.474,8.474,0,0,1,1.713-4.394,6.392,6.392,0,0,0,1.427-3.369,2.832,2.832,0,0,1,.068-.329C355.563,248.5,355.59,248.489,355.62,248.47Z" transform="translate(-312.534 -219.801)" fill="#fcfdff"/>
    <path id="Path_29" data-name="Path 29" d="M77.106,248.08a.771.771,0,0,1,.149.485,6.149,6.149,0,0,0,1.329,3.169,8.5,8.5,0,0,1,1.784,4.423.55.55,0,0,1,.008.167.1.1,0,0,1-.128.07.3.3,0,0,1-.1-.046,7.384,7.384,0,0,1-2.96-3.579A7.252,7.252,0,0,1,77.106,248.08Z" transform="translate(-69.291 -219.457)" fill="#fcfdff"/>
    <path id="Path_30" data-name="Path 30" d="M371,281.788a.52.52,0,0,1,.053-.144,12.036,12.036,0,0,1,2.127-2.242,5.058,5.058,0,0,1,1.9-.953,8.083,8.083,0,0,0,2.3-.893c.023-.014.067,0,.1.008.018.146-.087.235-.156.34a10.61,10.61,0,0,1-2.517,2.633,4.423,4.423,0,0,1-2.106.878,6.5,6.5,0,0,0-1.526.371A.162.162,0,0,1,371,281.788Z" transform="translate(-328.994 -245.467)" fill="#fcfdff"/>
    <path id="Path_31" data-name="Path 31" d="M412.7,199.424a1.251,1.251,0,0,1,.061-.64,11.636,11.636,0,0,1,.769-2.4,5,5,0,0,1,1.355-1.838,9.123,9.123,0,0,0,1.235-1.229c.187-.228.352-.47.572-.775a7.923,7.923,0,0,1-.193,1.345,10.523,10.523,0,0,1-.96,2.69,4.384,4.384,0,0,1-1.456,1.68A7.714,7.714,0,0,0,412.7,199.424Z" transform="translate(-365.781 -170.436)" fill="#fcfdff"/>
    <path id="Path_32" data-name="Path 32" d="M13.15,193.39a11,11,0,0,0,1.842,1.936,4.985,4.985,0,0,1,1.269,1.694,11.984,11.984,0,0,1,.926,3.036c-.1.077-.153.008-.2-.039a7.585,7.585,0,0,0-1.256-1.033,4.233,4.233,0,0,1-1.362-1.54,10.546,10.546,0,0,1-1.121-3.277C13.21,193.908,13.184,193.648,13.15,193.39Z" transform="translate(-13.15 -171.186)" fill="#fcfdff"/>
    <path id="Path_33" data-name="Path 33" d="M33.25,276.78a8.65,8.65,0,0,0,2.5,1,4.9,4.9,0,0,1,1.751.859,12.074,12.074,0,0,1,2.312,2.419c-.1.136-.178.045-.252.02a8.88,8.88,0,0,0-1.585-.362,3.828,3.828,0,0,1-1.567-.578,10.213,10.213,0,0,1-3.052-3.091A2.18,2.18,0,0,1,33.25,276.78Z" transform="translate(-30.891 -244.788)" fill="#fcfdff"/>
    <path id="Path_34" data-name="Path 34" d="M55.234,207.57c-.011.149-.013.3-.035.448a5.456,5.456,0,0,0,.47,3.067,7.105,7.105,0,0,1,.492,3.907,1.425,1.425,0,0,1-.033.166.162.162,0,0,1-.032.046,3.855,3.855,0,0,1-1.16-1.453,5.655,5.655,0,0,1-.716-3.246,5.785,5.785,0,0,1,1.007-2.935Z" transform="translate(-49.383 -183.702)" fill="#fcfdff"/>
    <path id="Path_35" data-name="Path 35" d="M389.463,207.22a5.941,5.941,0,0,1-.842,7.689.613.613,0,0,1-.117-.418,7.227,7.227,0,0,1,.532-3.741,5.4,5.4,0,0,0,.47-3.014c-.022-.167-.018-.337-.026-.5Z" transform="translate(-344.406 -183.393)" fill="#fcfdff"/>
    <path id="Path_36" data-name="Path 36" d="M18.67,243a8.4,8.4,0,0,0,2.075,1.026,4.93,4.93,0,0,1,1.944,1.3,12.072,12.072,0,0,1,1.572,2.1c-.1.1-.164.04-.229.011a8.66,8.66,0,0,0-1.492-.5,3.052,3.052,0,0,1-.977-.423A8.56,8.56,0,0,1,18.67,243Z" transform="translate(-18.022 -214.973)" fill="#fcfdff"/>
    <path id="Path_37" data-name="Path 37" d="M399.622,243.27a8.421,8.421,0,0,1-2.964,3.531,2.171,2.171,0,0,1-.555.27,15.2,15.2,0,0,0-2.006.677.184.184,0,0,1,.025-.228,11.079,11.079,0,0,1,1.737-2.207,4.521,4.521,0,0,1,1.555-.992,8.311,8.311,0,0,0,2.062-1.024c.036-.027.1-.013.156-.018Z" transform="translate(-349.355 -215.211)" fill="#fcfdff"/>
    <path id="Path_38" data-name="Path 38" d="M424.432,150.18c.069.048.063.124.07.194.031.317.076.634.081.952a8.871,8.871,0,0,1-.3,2.5,4.4,4.4,0,0,1-.755,1.558,10.146,10.146,0,0,0-.984,1.5c-.133-.1-.11-.223-.117-.329a9.155,9.155,0,0,1,.207-2.737,4.433,4.433,0,0,1,.553-1.346,11.032,11.032,0,0,0,1.156-2.244C424.348,150.207,424.4,150.2,424.432,150.18Z" transform="translate(-374.361 -133.049)" fill="#fcfdff"/>
    <path id="Path_39" data-name="Path 39" d="M21.116,156.224c-.049-.009-.075-.007-.081-.016-.36-.615-.79-1.182-1.194-1.768a4.965,4.965,0,0,1-.732-2.113,8.334,8.334,0,0,1-.029-2.634c.012-.068.026-.135.047-.243a.851.851,0,0,1,.127.161,8.365,8.365,0,0,0,1.011,2,5.535,5.535,0,0,1,.856,2.647c.034.448.043.9.049,1.349A6.031,6.031,0,0,1,21.116,156.224Z" transform="translate(-18.303 -132.404)" fill="#fcfdff"/>
    <path id="Path_40" data-name="Path 40" d="M27.86,107.22a8.258,8.258,0,0,0,.6,2.146,4,4,0,0,1,.289,1.761,10.613,10.613,0,0,1-.427,2.431.2.2,0,0,1-.087.124c-.062.023-.1-.036-.117-.092a7.951,7.951,0,0,0-.6-1.33,2.776,2.776,0,0,1-.324-1.069,8.616,8.616,0,0,1,.524-3.756A1.6,1.6,0,0,1,27.86,107.22Z" transform="translate(-25.52 -95.131)" fill="#fcfdff"/>
    <path id="Path_41" data-name="Path 41" d="M419.814,114.068a1.125,1.125,0,0,1-.221-.528,11.119,11.119,0,0,1-.318-1.825,4.251,4.251,0,0,1,.27-2.041,8.277,8.277,0,0,0,.575-1.944.8.8,0,0,1,.079-.169,3.715,3.715,0,0,1,.346.979,8.649,8.649,0,0,1,.288,2.728,3.1,3.1,0,0,1-.372,1.342A9.839,9.839,0,0,0,419.814,114.068Z" transform="translate(-371.579 -95.431)" fill="#fcfdff"/>
    <path id="Path_42" data-name="Path 42" d="M387,129.029c.062-.018.083-.031.1-.026a5.444,5.444,0,0,1,3.507,5.4c0,.073,0,.161-.076.2s-.136-.023-.188-.074a6.276,6.276,0,0,1-1.761-2.9,5,5,0,0,0-.666-1.542,4.749,4.749,0,0,0-.6-.743C387.214,129.244,387.117,129.142,387,129.029Z" transform="translate(-343.116 -114.356)" fill="#fcfdff"/>
    <path id="Path_43" data-name="Path 43" d="M45.906,129.053c-.136.117-.214.166-.279.235a4.821,4.821,0,0,0-1.335,2.309,6.256,6.256,0,0,1-1.731,2.912,1.532,1.532,0,0,1-.126.117.1.1,0,0,1-.171-.06.746.746,0,0,1-.02-.11,5.242,5.242,0,0,1,3.493-5.417A.865.865,0,0,1,45.906,129.053Z" transform="translate(-38.822 -114.389)" fill="#fcfdff"/>
    <path id="Path_44" data-name="Path 44" d="M400,166.19a1.629,1.629,0,0,1,.221.14,5.164,5.164,0,0,1,1.479,5.289,5.631,5.631,0,0,1-.372,1,.217.217,0,0,1-.117.106c-.06.018-.089-.045-.117-.094a6.808,6.808,0,0,1-.521-1.648,5.578,5.578,0,0,1-.052-1.843,4.651,4.651,0,0,0-.393-2.631C400.1,166.435,400.072,166.365,400,166.19Z" transform="translate(-354.59 -147.179)" fill="#fcfdff"/>
    <path id="Path_45" data-name="Path 45" d="M44.456,173.317a5.569,5.569,0,0,1-.573-3.874,4.853,4.853,0,0,1,1.741-2.734c-.1.263-.2.5-.282.745a4.989,4.989,0,0,0-.188,2.274A6.434,6.434,0,0,1,44.456,173.317Z" transform="translate(-40.158 -147.638)" fill="#fcfdff"/>
    <path id="Path_46" data-name="Path 46" d="M378.76,101a4.772,4.772,0,0,1,4.152,4.331c-.127.046-.211-.043-.3-.1a5.935,5.935,0,0,1-2.024-2.288A4.656,4.656,0,0,0,378.76,101Z" transform="translate(-335.844 -89.641)" fill="#fcfdff"/>
    <path id="Path_47" data-name="Path 47" d="M45.977,105.336c-.09-1.931,1.878-4.066,4.011-4.336.038.129-.09.139-.146.175a4.6,4.6,0,0,0-1.6,1.843,5.868,5.868,0,0,1-2.055,2.26A.252.252,0,0,1,45.977,105.336Z" transform="translate(-42.121 -89.641)" fill="#fcfdff"/>
    <path id="Path_48" data-name="Path 48" d="M96.357,47.351a4.429,4.429,0,0,0-2.288,1.291A4.943,4.943,0,0,1,91.66,49.9a.216.216,0,0,1-.158-.014c-.076-.056-.028-.135,0-.2a4.409,4.409,0,0,1,4.633-2.481A.244.244,0,0,1,96.357,47.351Z" transform="translate(-82.268 -42.13)" fill="#fcfdff"/>
    <path id="Path_49" data-name="Path 49" d="M326.91,47.352a.219.219,0,0,1,.211-.146,4.408,4.408,0,0,1,4.632,2.476c.033.062.08.139.013.2s-.143.026-.214.007a5.012,5.012,0,0,1-2.4-1.281A4.307,4.307,0,0,0,326.91,47.352Z" transform="translate(-290.08 -42.13)" fill="#fcfdff"/>
    <path id="Path_50" data-name="Path 50" d="M45.885,73a10.788,10.788,0,0,0,.029,2.113,2.661,2.661,0,0,1-.04.727,5.809,5.809,0,0,1-.98,2.358c-.1-.052-.08-.153-.093-.235q-.086-.555-.166-1.112a3.546,3.546,0,0,1,.006-1.122A6.456,6.456,0,0,1,45.885,73Z" transform="translate(-40.903 -64.928)" fill="#fcfdff"/>
    <path id="Path_51" data-name="Path 51" d="M404.382,73.77a5.773,5.773,0,0,1,1.11,2.253,3.582,3.582,0,0,1,.056,1.727c-.067.311-.087.632-.128.947-.009.07-.007.147-.083.188a5,5,0,0,1-1-3.363A15.783,15.783,0,0,0,404.382,73.77Z" transform="translate(-358.409 -65.608)" fill="#fcfdff"/>
    <path id="Path_52" data-name="Path 52" d="M85.546,35.62a12.431,12.431,0,0,0-.506,1.561,2.422,2.422,0,0,1-.168.47A5.752,5.752,0,0,1,83.1,39.6a4.124,4.124,0,0,1,1.376-3.169A3.782,3.782,0,0,1,85.546,35.62Z" transform="translate(-74.889 -31.936)" fill="#fcfdff"/>
    <path id="Path_53" data-name="Path 53" d="M355.77,35.656a.183.183,0,0,1,.235.033,6.657,6.657,0,0,1,1.611,1.626,2.693,2.693,0,0,1,.47,1.128c.056.366.133.73.2,1.089-.094.063-.146,0-.2-.043a7.393,7.393,0,0,1-.9-.837,3.569,3.569,0,0,1-.939-1.7,5.134,5.134,0,0,0-.471-1.3Z" transform="translate(-315.552 -31.943)" fill="#fcfdff"/>
    <path id="Path_54" data-name="Path 54" d="M66.11,49.67a9.288,9.288,0,0,0-.352,1.782,1.557,1.557,0,0,1-.1.379,5.916,5.916,0,0,1-1.385,2.018.117.117,0,0,1-.1.02.1.1,0,0,1-.053-.079c.027-.447.054-.894.092-1.341a2.067,2.067,0,0,1,.212-.693,6.339,6.339,0,0,1,1.5-2.008A.753.753,0,0,1,66.11,49.67Z" transform="translate(-58.137 -44.337)" fill="#fcfdff"/>
    <path id="Path_55" data-name="Path 55" d="M381.074,54.116a4.841,4.841,0,0,1-1.46-1.865,2.216,2.216,0,0,1-.176-.587,9.231,9.231,0,0,0-.338-1.691c.1-.056.154,0,.2.046a6.638,6.638,0,0,1,1.366,1.761,2.742,2.742,0,0,1,.344,1.345C381.009,53.455,381.052,53.786,381.074,54.116Z" transform="translate(-336.144 -44.583)" fill="#fcfdff"/>
    <path id="Path_56" data-name="Path 56" d="M363.28,77.134c.029-.016.059-.047.085-.045a4.41,4.41,0,0,1,3.965,2.6.692.692,0,0,1,.054.215c0,.019-.043.058-.072.063a.2.2,0,0,1-.107-.02,5.23,5.23,0,0,1-2.113-1.443,4.329,4.329,0,0,0-1.592-1.216C363.422,77.25,363.327,77.228,363.28,77.134Z" transform="translate(-322.181 -68.537)" fill="#fcfdff"/>
    <path id="Path_57" data-name="Path 57" d="M61.66,80.123a4.263,4.263,0,0,1,4.12-2.841c-.041.124-.163.139-.258.182a4.2,4.2,0,0,0-1.506,1.147,5.279,5.279,0,0,1-2.2,1.51A.6.6,0,0,1,61.66,80.123Z" transform="translate(-55.966 -68.704)" fill="#fcfdff"/>
    <path id="Path_58" data-name="Path 58" d="M327.956,26.884a5.394,5.394,0,0,1-1.7-.776,1.9,1.9,0,0,1-.37-.343,7.667,7.667,0,0,0-.939-1.106A3.537,3.537,0,0,1,327.956,26.884Z" transform="translate(-288.35 -22.262)" fill="#fcfdff"/>
    <path id="Path_59" data-name="Path 59" d="M109.88,26.554a3.258,3.258,0,0,1,1.689-1.825,4.8,4.8,0,0,1,1.271-.419c-.373.461-.7.885-1.047,1.291a2.418,2.418,0,0,1-.784.536A4.842,4.842,0,0,1,109.88,26.554Z" transform="translate(-98.526 -21.954)" fill="#fcfdff"/>
    <path id="Path_60" data-name="Path 60" d="M441.407,242.653a.321.321,0,0,1,.011-.077c.075,0,0-.05,0,.025,0,.014-.012.028-.018.042Z" transform="translate(-391.131 -214.584)" fill="#fcfdff"/>
    <path id="Path_61" data-name="Path 61" d="M63,207.29c.074-.012.023.067.032-.006,0-.035-.029-.034-.026.012Z" transform="translate(-57.148 -183.428)" fill="#fcfdff"/>
    <path id="Path_62" data-name="Path 62" d="M396.843,207.248h-.033c.02.034.027.031.019-.008Z" transform="translate(-351.775 -183.411)" fill="#fcfdff"/>
  </g>
</svg>
